<svg width="60" height="60" viewBox="0 0 60 60" fill="none" xmlns="http://www.w3.org/2000/svg">
<rect width="60" height="60" rx="30" fill="#1B7262" fill-opacity="0.1"/>
<path d="M40 27.2273C40 35.1818 30 42 30 42C30 42 20 35.1818 20 27.2273C20 24.5148 21.0536 21.9135 22.9289 19.9955C24.8043 18.0775 27.3478 17 30 17C32.6522 17 35.1957 18.0775 37.0711 19.9955C38.9464 21.9135 40 24.5148 40 27.2273Z" stroke="#1B7262" stroke-width="1.5" stroke-linecap="round" stroke-linejoin="round"/>
<path d="M29.9974 30.6365C31.8383 30.6365 33.3307 29.1102 33.3307 27.2275C33.3307 25.3447 31.8383 23.8184 29.9974 23.8184C28.1564 23.8184 26.6641 25.3447 26.6641 27.2275C26.6641 29.1102 28.1564 30.6365 29.9974 30.6365Z" stroke="#1B7262" stroke-width="1.5" stroke-linecap="round" stroke-linejoin="round"/>
</svg>
