<svg width="60" height="60" viewBox="0 0 60 60" fill="none" xmlns="http://www.w3.org/2000/svg">
<rect width="60" height="60" rx="30" fill="#1B7262" fill-opacity="0.1"/>
<path d="M32.388 23.8226C33.3232 24.0047 34.1827 24.4612 34.8565 25.1337C35.5302 25.8062 35.9876 26.664 36.1701 27.5974M32.388 20C34.331 20.2154 36.1429 21.0839 37.5261 22.4627C38.9093 23.8416 39.7817 25.6489 40 27.5879M39.0425 35.214V38.0809C39.0436 38.3471 38.989 38.6105 38.8821 38.8544C38.7753 39.0983 38.6186 39.3172 38.4221 39.4971C38.2256 39.677 37.9937 39.814 37.7411 39.8993C37.4885 39.9845 37.2208 40.0162 36.9552 39.9922C34.0089 39.6727 31.1787 38.6678 28.6921 37.0584C26.3787 35.5911 24.4173 33.6335 22.9472 31.3245C21.3291 28.8314 20.3221 25.9929 20.0078 23.039C19.9838 22.7747 20.0153 22.5084 20.1002 22.2569C20.185 22.0054 20.3214 21.7743 20.5007 21.5784C20.6799 21.3824 20.898 21.2258 21.1412 21.1186C21.3844 21.0114 21.6473 20.9559 21.9132 20.9557H24.7856C25.2503 20.9511 25.7008 21.1153 26.0531 21.4177C26.4054 21.7202 26.6355 22.1401 26.7006 22.5994C26.8218 23.5169 27.0467 24.4177 27.3708 25.2848C27.4996 25.6268 27.5275 25.9985 27.4511 26.3559C27.3748 26.7133 27.1974 27.0414 26.9399 27.3012L25.7239 28.5149C27.087 30.9074 29.0717 32.8883 31.4688 34.2488L32.6848 33.0351C32.9452 32.7782 33.2738 32.6011 33.6319 32.5249C33.99 32.4486 34.3624 32.4765 34.7051 32.6051C35.5738 32.9286 36.4764 33.153 37.3956 33.274C37.8608 33.3395 38.2855 33.5733 38.5892 33.931C38.8928 34.2887 39.0542 34.7453 39.0425 35.214Z" stroke="#1B7262" stroke-width="1.5" stroke-linecap="round" stroke-linejoin="round"/>
</svg>
