<svg width="65" height="60" viewBox="0 0 65 60" fill="none" xmlns="http://www.w3.org/2000/svg">
<rect width="40" height="60" fill="#1B7261" fill-opacity="0.08"/>
<path d="M51.2305 13.3008C54.0576 13.3008 56.3574 16.0352 56.3574 19.4043C56.3574 19.5985 56.4346 19.7848 56.5719 19.9222C56.7093 20.0596 56.8956 20.1367 57.0898 20.1367C57.2841 20.1367 57.4704 20.0596 57.6077 19.9222C57.7451 19.7848 57.8223 19.5985 57.8223 19.4043C57.8223 16.0352 60.1221 13.3008 62.9492 13.3008C63.1435 13.3008 63.3298 13.2236 63.4671 13.0863C63.6045 12.9489 63.6816 12.7626 63.6816 12.5684C63.6816 12.3741 63.6045 12.1878 63.4671 12.0505C63.3298 11.9131 63.1435 11.8359 62.9492 11.8359C60.1221 11.8359 57.8223 9.10156 57.8223 5.73242C57.8223 5.53817 57.7451 5.35188 57.6077 5.21452C57.4704 5.07717 57.2841 5 57.0898 5C56.8956 5 56.7093 5.07717 56.5719 5.21452C56.4346 5.35188 56.3574 5.53817 56.3574 5.73242C56.3574 9.10156 54.0625 11.8359 51.2305 11.8359C51.0362 11.8359 50.8499 11.9131 50.7126 12.0505C50.5752 12.1878 50.498 12.3741 50.498 12.5684C50.498 12.7626 50.5752 12.9489 50.7126 13.0863C50.8499 13.2236 51.0362 13.3008 51.2305 13.3008ZM57.0898 9.19922C57.751 10.6641 58.8193 11.8574 60.1172 12.5703C58.8193 13.2812 57.751 14.4727 57.0898 15.9375C56.4287 14.4727 55.3604 13.2793 54.0625 12.5664C55.3604 11.8555 56.4287 10.6641 57.0898 9.19922Z" fill="#1B7261"/>
<path d="M31.6992 29.2676C29.6797 29.2676 28.0371 27.4053 28.0371 25.1172C28.0371 24.9229 27.9599 24.7366 27.8226 24.5993C27.6852 24.4619 27.4989 24.3848 27.3047 24.3848C27.1104 24.3848 26.9241 24.4619 26.7868 24.5993C26.6494 24.7366 26.5723 24.9229 26.5723 25.1172C26.5723 27.4053 24.9297 29.2676 22.9102 29.2676C22.7159 29.2676 22.5296 29.3447 22.3923 29.4821C22.2549 29.6195 22.1777 29.8057 22.1777 30C22.1777 30.1943 22.2549 30.3805 22.3923 30.5179C22.5296 30.6553 22.7159 30.7324 22.9102 30.7324C24.9297 30.7324 26.5723 32.5947 26.5723 34.8828C26.5723 35.0771 26.6494 35.2634 26.7868 35.4007C26.9241 35.5381 27.1104 35.6152 27.3047 35.6152C27.4989 35.6152 27.6852 35.5381 27.8226 35.4007C27.9599 35.2634 28.0371 35.0771 28.0371 34.8828C28.0371 32.5947 29.6797 30.7324 31.6992 30.7324C31.8935 30.7324 32.0798 30.6553 32.2171 30.5179C32.3545 30.3805 32.4316 30.1943 32.4316 30C32.4316 29.8057 32.3545 29.6195 32.2171 29.4821C32.0798 29.3447 31.8935 29.2676 31.6992 29.2676ZM27.3047 31.9932C26.863 31.181 26.2213 30.495 25.4404 30C26.2213 29.505 26.863 28.819 27.3047 28.0068C27.7464 28.819 28.3881 29.505 29.1689 30C28.3881 30.495 27.7464 31.181 27.3047 31.9932Z" fill="#1B7261"/>
<path d="M40.3375 8.26368C40.422 8.26454 40.5059 8.25066 40.5856 8.22266L42.4205 7.55469C42.5113 7.52192 42.5948 7.4716 42.6661 7.40658C42.7375 7.34156 42.7953 7.26312 42.8363 7.17575C42.8774 7.08838 42.9008 6.99378 42.9053 6.89736C42.9098 6.80093 42.8952 6.70457 42.8624 6.61377C42.8297 6.52298 42.7793 6.43952 42.7143 6.36818C42.6493 6.29683 42.5709 6.23899 42.4835 6.19796C42.3961 6.15692 42.3015 6.1335 42.2051 6.12902C42.1087 6.12455 42.0123 6.13911 41.9215 6.17188L40.0865 6.83985C39.9245 6.89865 39.7885 7.01269 39.7022 7.16192C39.616 7.31115 39.5852 7.486 39.6152 7.65572C39.6451 7.82544 39.734 7.97915 39.8661 8.08981C39.9983 8.20048 40.1652 8.261 40.3375 8.26075V8.26368Z" fill="#1B7261"/>
<path d="M40.0871 10.4814L41.9221 11.1523C42.0125 11.1852 42.1085 11.2 42.2046 11.1958C42.3007 11.1915 42.3951 11.1684 42.4823 11.1278C42.5695 11.0871 42.6478 11.0297 42.7128 10.9587C42.7778 10.8878 42.8282 10.8047 42.861 10.7143C42.8939 10.6239 42.9087 10.5279 42.9045 10.4318C42.9003 10.3357 42.8772 10.2413 42.8365 10.1541C42.7958 10.0669 42.7384 9.98861 42.6675 9.92362C42.5965 9.85863 42.5135 9.80825 42.4231 9.77535L40.5861 9.10153C40.4035 9.03509 40.202 9.04391 40.026 9.12605C39.8499 9.20819 39.7136 9.35692 39.6472 9.53951C39.5807 9.72211 39.5896 9.92362 39.6717 10.0997C39.7538 10.2758 39.9026 10.412 40.0852 10.4785L40.0871 10.4814Z" fill="#1B7261"/>
<path d="M23.2219 7.55172L25.0588 8.22262C25.2414 8.28905 25.4429 8.28023 25.619 8.19809C25.7951 8.11595 25.9313 7.96723 25.9978 7.78463C26.0642 7.60203 26.0554 7.40053 25.9732 7.22444C25.8911 7.04835 25.7424 6.9121 25.5598 6.84567L23.7229 6.17184C23.6325 6.13894 23.5364 6.12418 23.4403 6.12839C23.3442 6.1326 23.2499 6.15569 23.1627 6.19637C23.0755 6.23704 22.9972 6.29448 22.9322 6.36542C22.8672 6.43637 22.8168 6.51941 22.7839 6.60983C22.751 6.70024 22.7362 6.79624 22.7404 6.89236C22.7447 6.98848 22.7678 7.08283 22.8084 7.17002C22.8491 7.25721 22.9065 7.33554 22.9775 7.40053C23.0484 7.46552 23.1315 7.5159 23.2219 7.54879V7.55172Z" fill="#1B7261"/>
<path d="M23.4718 11.1934C23.5572 11.1945 23.6422 11.1806 23.7228 11.1523L25.5577 10.4844C25.6485 10.4516 25.732 10.4013 25.8033 10.3363C25.8747 10.2712 25.9325 10.1928 25.9736 10.1054C26.0146 10.0181 26.038 9.92347 26.0425 9.82704C26.047 9.73062 26.0324 9.63426 25.9996 9.54346C25.9335 9.36009 25.7971 9.21051 25.6207 9.12764C25.5333 9.08661 25.4387 9.06319 25.3423 9.05871C25.2459 9.05424 25.1495 9.0688 25.0587 9.10157L23.2218 9.77246C23.0599 9.83124 22.9238 9.9452 22.8376 10.0943C22.7514 10.2435 22.7205 10.4182 22.7503 10.5879C22.7802 10.7575 22.8689 10.9112 23.0008 11.022C23.1328 11.1327 23.2995 11.1934 23.4718 11.1934Z" fill="#1B7261"/>
<path d="M49.6191 24.2383C49.4307 24.2383 49.2432 24.2432 49.0566 24.25C47.973 21.8523 46.3708 19.725 44.3656 18.0214C42.3604 16.3178 40.0022 15.0804 37.4609 14.3984V11.5918C37.4609 11.4284 37.4062 11.2698 37.3058 11.141C37.2053 11.0122 37.0647 10.9207 36.9062 10.8809C36.7666 10.8467 36.627 10.8145 36.4863 10.7832L37.7881 8.17969C37.9558 7.84476 38.0351 7.47251 38.0184 7.09831C38.0017 6.72411 37.8895 6.36041 37.6926 6.04176C37.4957 5.72312 37.2206 5.46013 36.8934 5.27779C36.5662 5.09545 36.1978 4.99983 35.8232 5H29.8213C29.4467 4.99983 29.0783 5.09545 28.7511 5.27779C28.4239 5.46013 28.1488 5.72312 27.9519 6.04176C27.755 6.36041 27.6429 6.72411 27.6262 7.09831C27.6095 7.47251 27.6887 7.84476 27.8564 8.17969L29.1602 10.7832C29.0195 10.8145 28.8799 10.8467 28.7402 10.8809C28.5814 10.9203 28.4404 11.0117 28.3395 11.1405C28.2387 11.2693 28.1838 11.4282 28.1836 11.5918V14.4023C20.5986 16.4531 15 23.3867 15 31.6113C15 41.4385 22.9951 49.4336 32.8223 49.4336C34.3407 49.4346 35.8531 49.241 37.3223 48.8574C38.7566 50.7632 40.6139 52.31 42.7478 53.3759C44.8816 54.4419 47.2339 54.9978 49.6191 55C58.1006 55 65 48.1006 65 39.6191C65 31.1377 58.1006 24.2383 49.6191 24.2383ZM29.166 7.52441C29.1103 7.41275 29.084 7.28869 29.0896 7.16402C29.0953 7.03934 29.1327 6.91818 29.1984 6.81203C29.264 6.70588 29.3557 6.61827 29.4647 6.55751C29.5737 6.49674 29.6965 6.46485 29.8213 6.46484H35.8232C35.948 6.46485 36.0708 6.49674 36.1798 6.55751C36.2888 6.61827 36.3805 6.70588 36.4461 6.81203C36.5118 6.91818 36.5492 7.03934 36.5549 7.16402C36.5606 7.28869 36.5343 7.41275 36.4785 7.52441L34.9805 10.5195C33.5475 10.3359 32.097 10.3359 30.6641 10.5195L29.166 7.52441ZM29.6484 12.1748C31.7415 11.7354 33.903 11.7354 35.9961 12.1748V14.0713C33.897 13.6943 31.7475 13.6943 29.6484 14.0713V12.1748ZM16.4648 31.6113C16.4648 22.5918 23.8027 15.2539 32.8223 15.2539C35.8784 15.2493 38.8744 16.1026 41.4695 17.7168C44.0645 19.3311 46.1543 21.6413 47.501 24.3848C46.9959 24.4547 46.4946 24.5498 45.999 24.6699C44.7352 22.2701 42.8399 20.2611 40.5177 18.8598C38.1954 17.4585 35.5345 16.7182 32.8223 16.7188C24.6104 16.7188 17.9297 23.3994 17.9297 31.6113C17.9297 39.8232 24.6104 46.5039 32.8223 46.5039C41.0342 46.5039 47.7148 39.8232 47.7148 31.6113C47.7144 30.6838 47.6277 29.7582 47.4561 28.8467C47.9363 28.7508 48.4224 28.6872 48.9111 28.6562C49.0894 29.6312 49.1793 30.6202 49.1797 31.6113C49.1797 40.6309 41.8418 47.9688 32.8223 47.9688C23.8027 47.9688 16.4648 40.6309 16.4648 31.6113ZM44.5625 25.0938C38.5576 27.1895 34.2383 32.9092 34.2383 39.6191C34.2357 41.398 34.5434 43.1637 35.1475 44.8369C34.3797 44.9717 33.6017 45.0393 32.8223 45.0391C25.418 45.0391 19.3945 39.0156 19.3945 31.6113C19.3945 24.207 25.418 18.1836 32.8223 18.1836C35.216 18.1918 37.5645 18.8359 39.6274 20.0501C41.6903 21.2643 43.3934 23.0049 44.5625 25.0938ZM38.6328 39.6191C38.6355 37.333 39.3502 35.1045 40.6774 33.2432C42.0047 31.3818 43.8786 29.98 46.0391 29.2324C46.5363 31.9999 46.1526 34.8536 44.9422 37.3915C43.7318 39.9294 41.7556 42.0236 39.292 43.3789C38.853 42.1741 38.6298 40.9014 38.6328 39.6191ZM50.3994 28.6611C52.1847 28.7875 53.9121 29.3482 55.4314 30.2943C56.9506 31.2405 58.2157 32.5435 59.1166 34.09C60.0175 35.6365 60.5269 37.3797 60.6006 39.1679C60.6742 40.9562 60.3099 42.7353 59.5392 44.3507C58.7685 45.966 57.6149 47.3686 56.1786 48.4365C54.7423 49.5044 53.0669 50.2052 51.298 50.478C49.5291 50.7508 47.7204 50.5873 46.0291 50.0017C44.3379 49.4162 42.8153 48.4263 41.5938 47.1182C44.7785 45.3175 47.3319 42.5803 48.9072 39.2783C50.4826 35.9763 51.0035 32.2695 50.3994 28.6611ZM49.6191 53.5352C47.5504 53.5333 45.508 53.0709 43.6402 52.1816C41.7723 51.2923 40.1259 49.9983 38.8203 48.3936C39.306 48.2197 39.7809 48.0244 40.2451 47.8076C42.2874 50.1376 45.1275 51.6193 48.207 51.9612C51.2864 52.3031 54.3824 51.4805 56.886 49.6552C59.3897 47.8299 61.1199 45.134 61.7363 42.0976C62.3528 39.0611 61.811 35.9039 60.2174 33.2468C58.6238 30.5896 56.0937 28.6249 53.1248 27.7388C50.1558 26.8527 46.9627 27.1094 44.1735 28.4585C41.3842 29.8076 39.2006 32.1514 38.0521 35.029C36.9035 37.9067 36.8731 41.1099 37.9668 44.0088C37.5154 44.1967 37.0541 44.3597 36.585 44.4971C36.0001 42.9358 35.7023 41.2815 35.7061 39.6143C35.7031 31.9463 41.9453 25.7031 49.6191 25.7031C57.293 25.7031 63.5352 31.9463 63.5352 39.6191C63.5352 47.292 57.293 53.5352 49.6191 53.5352Z" fill="#1B7261"/>
</svg>
