<svg width="45" height="50" viewBox="0 0 45 50" fill="none" xmlns="http://www.w3.org/2000/svg">
<path d="M23.9914 11.1875C25.3312 11.1875 26.4267 10.1016 26.4267 8.77344C26.4267 7.44531 25.3312 6.35938 23.9914 6.35938C22.6516 6.35938 21.5562 7.44531 21.5562 8.77344C21.5562 10.1016 22.6516 11.1875 23.9914 11.1875ZM23.9914 7.71094C24.5825 7.71094 25.0632 8.1875 25.0632 8.77344C25.0632 9.35937 24.5825 9.83594 23.9914 9.83594C23.4003 9.83594 22.9196 9.35937 22.9196 8.77344C22.9196 8.1875 23.4003 7.71094 23.9914 7.71094Z" fill="#1B7261"/>
<path d="M10.4438 14.1328C11.6417 14.1328 12.6269 13.1641 12.6269 11.9687C12.6269 10.7734 11.6496 9.80469 10.4438 9.80469C9.24588 9.80469 8.26074 10.7734 8.26074 11.9687C8.26074 13.1641 9.238 14.1328 10.4438 14.1328ZM10.4438 11.1641C10.893 11.1641 11.2634 11.5234 11.2634 11.9687C11.2634 12.4141 10.9009 12.7813 10.4438 12.7813C9.99458 12.7813 9.62417 12.4219 9.62417 11.9687C9.62417 11.5312 9.99458 11.1641 10.4438 11.1641Z" fill="#1B7261"/>
<path d="M37.539 9.8125C36.3411 9.8125 35.356 10.7812 35.356 11.9766C35.356 13.1719 36.3332 14.1406 37.539 14.1406C38.7448 14.1406 39.7221 13.1719 39.7221 11.9766C39.7221 10.7812 38.7448 9.8125 37.539 9.8125ZM37.539 12.7813C37.0898 12.7813 36.7194 12.4219 36.7194 11.9687C36.7194 11.5234 37.0819 11.1641 37.539 11.1641C37.9882 11.1641 38.3586 11.5234 38.3586 11.9687C38.3586 12.4219 37.9961 12.7813 37.539 12.7813Z" fill="#1B7261"/>
<path d="M44.8292 9.625C44.2932 7.98438 42.6067 7.02344 40.9359 7.33594C40.7231 5.66406 39.2809 4.375 37.5392 4.375C35.7974 4.375 34.3552 5.67188 34.1424 7.33594C33.6065 7.23438 33.0785 7.27344 32.582 7.41406C32.5977 6.96094 32.5504 6.5 32.4007 6.05469C31.7781 4.14844 29.7842 3.05469 27.8533 3.48438C27.6799 1.53125 26.0091 0 23.9916 0C21.974 0 20.3032 1.53125 20.122 3.49219C18.1832 3.0625 16.1972 4.15625 15.5746 6.0625C15.4248 6.50781 15.3775 6.96875 15.3933 7.42188C14.8968 7.28125 14.3688 7.24219 13.8329 7.34375C13.6201 5.67187 12.1778 4.38281 10.4361 4.38281C8.69439 4.38281 7.25215 5.67969 7.03936 7.34375C5.36857 7.03125 3.68202 7.99219 3.14611 9.63281C2.61019 11.2734 3.40618 13.0312 4.943 13.75C4.58047 14.4062 4.44649 15.1563 4.5647 15.9141C4.6908 16.7266 5.11638 17.4375 5.74687 17.9688C6.1094 19.8047 7.75654 26.3672 13.3521 31.3516C7.54375 32.1094 3.22492 34.0625 0.182821 37.2969C-0.029968 37.5234 -0.0614924 37.8672 0.111891 38.1328L3.26432 42.8594C2.90179 43.4922 2.56291 44.1484 2.23978 44.8438C2.10581 45.1406 2.20038 45.4844 2.46045 45.6719L8.34762 49.875C8.46584 49.9609 8.6077 50 8.74956 50C8.83625 50 8.93082 49.9844 9.00963 49.9453C9.2303 49.8516 9.38004 49.6562 9.41945 49.4297C10.0027 45.7656 11.3582 42.6875 13.4467 40.2188C12.564 42.6875 12.6192 45.4453 12.6822 48.0078C12.6901 48.375 12.9896 48.6719 13.36 48.6719H35.3167C35.695 48.6719 35.9945 48.3672 35.9945 48C36.0181 42.7266 34.7887 38.9297 32.1485 36.0625V33.6797C40.6522 28.1016 42.2442 18.3516 42.3151 17.8828C42.8983 17.3672 43.2845 16.6797 43.4106 15.9062C43.5288 15.1563 43.3948 14.3984 43.0323 13.7422C44.577 13.0234 45.373 11.2656 44.8292 9.625ZM16.8671 6.47656C17.3005 5.16406 18.727 4.44531 20.051 4.86719C20.2087 4.91406 20.3584 4.98438 20.5081 5.07031C20.7367 5.20312 21.0283 5.17969 21.2411 5.03125C21.4539 4.875 21.5642 4.60938 21.509 4.35156C21.4775 4.1875 21.4617 4.02344 21.4617 3.85938C21.4617 2.47656 22.5966 1.35156 23.9916 1.35156C25.3865 1.35156 26.5214 2.47656 26.5214 3.85938C26.5214 4.02344 26.5056 4.1875 26.4741 4.35156C26.4189 4.60938 26.5293 4.875 26.7421 5.03125C26.9549 5.1875 27.2465 5.20312 27.475 5.07031C27.6248 4.98438 27.7745 4.92188 27.9321 4.86719C29.2561 4.4375 30.6826 5.16406 31.1161 6.47656C31.321 7.11719 31.2737 7.78906 30.9663 8.39062C30.9506 8.42188 30.9269 8.44531 30.9112 8.47656C30.8008 8.60938 30.6984 8.75 30.6117 8.89844C30.3122 9.23438 29.9418 9.49219 29.5005 9.63281C29.3428 9.67969 29.1773 9.71875 29.0118 9.73438C28.7439 9.76562 28.5232 9.94531 28.4444 10.1953C28.3656 10.4453 28.4365 10.7188 28.6257 10.8984C28.7517 11.0156 28.8621 11.1406 28.9567 11.2734C29.7763 12.3906 29.5241 13.9609 28.3971 14.7734C27.2701 15.5859 25.686 15.3359 24.8664 14.2188C24.7718 14.0859 24.6851 13.9375 24.6142 13.7891C24.5038 13.5469 24.2595 13.3984 23.9916 13.3984C23.7236 13.3984 23.4872 13.5547 23.369 13.7891C23.298 13.9375 23.2113 14.0859 23.1168 14.2188C22.2971 15.3359 20.713 15.5859 19.586 14.7734C18.4591 13.9609 18.2069 12.3906 19.0265 11.2734C19.1211 11.1406 19.2314 11.0156 19.3575 10.8984C19.5545 10.7188 19.6255 10.4453 19.5388 10.1953C19.4599 9.94531 19.2314 9.76562 18.9713 9.73438C18.8058 9.71875 18.6403 9.67969 18.4827 9.625C18.0414 9.48438 17.6631 9.22656 17.3715 8.89062C17.2769 8.74219 17.1823 8.60156 17.072 8.46875C17.0562 8.4375 17.0326 8.41406 17.0168 8.38281C16.7173 7.79687 16.6622 7.11719 16.8671 6.47656ZM6.401 16.7109C6.1488 16.4219 5.97542 16.0781 5.91237 15.6875C5.82568 15.1484 5.95966 14.6094 6.28278 14.1719C6.36159 14.0625 6.45616 13.9609 6.55074 13.8672C6.74776 13.6875 6.81869 13.4141 6.73988 13.1641C6.66107 12.9141 6.43252 12.7344 6.17244 12.7031C6.03847 12.6875 5.90449 12.6562 5.77051 12.6172C4.6908 12.2656 4.09972 11.1172 4.44649 10.0469C4.80114 8.97656 5.95965 8.39062 7.03936 8.73438C7.16546 8.77344 7.29156 8.82812 7.40977 8.89844C7.63833 9.02344 7.92992 9.00781 8.14271 8.85938C8.3555 8.70312 8.46584 8.4375 8.41067 8.17969C8.38703 8.04688 8.37127 7.90625 8.37127 7.77344C8.37127 6.64844 9.29335 5.73438 10.4282 5.73438C11.5631 5.73438 12.4852 6.64844 12.4852 7.77344C12.4852 7.90625 12.4694 8.03906 12.4458 8.17188C12.3906 8.42969 12.501 8.69531 12.7137 8.85156C12.9265 9.00781 13.2181 9.02344 13.4467 8.89062C13.5649 8.82812 13.691 8.77344 13.8171 8.72656C14.6131 8.46875 15.4485 8.72656 15.9765 9.29688C16.0632 9.4375 16.1578 9.57031 16.2681 9.70312C16.3233 9.8125 16.3784 9.92188 16.4179 10.0391C16.7725 11.1094 16.1735 12.2656 15.0938 12.6094C14.9677 12.6484 14.8338 12.6797 14.6998 12.6953C14.4318 12.7266 14.2111 12.9062 14.1323 13.1562C14.0535 13.4062 14.1245 13.6797 14.3215 13.8594C14.4239 13.9531 14.5106 14.0547 14.5894 14.1641C14.9126 14.6094 15.0465 15.1484 14.9599 15.6875C14.8732 16.2266 14.5816 16.7031 14.1323 17.0234C13.6831 17.3438 13.1393 17.4766 12.5955 17.3906C12.0517 17.3047 11.571 17.0156 11.2479 16.5703C11.1691 16.4609 11.0981 16.3438 11.043 16.2188C10.9326 15.9766 10.6883 15.8281 10.4203 15.8281C10.1524 15.8281 9.91596 15.9844 9.79774 16.2188C9.74257 16.3438 9.67164 16.4609 9.59283 16.5703C9.26971 17.0156 8.78896 17.3047 8.24517 17.3906C7.79595 17.4609 7.33884 17.375 6.94479 17.1641C6.88962 16.9062 6.66895 16.7422 6.401 16.7109ZM1.55413 37.8281C4.57258 34.8359 8.93082 33.1094 14.818 32.5391C15.3539 32.9453 15.9292 33.3281 16.5282 33.6953V34.8984C11.5001 34.5078 7.18122 36.8438 4.04455 41.5781L1.55413 37.8281ZM8.26881 48.1484L3.72143 44.8984C6.53497 39.0938 10.7908 36.0703 15.8741 36.2031C11.8705 38.9922 9.317 43 8.26881 48.1484ZM34.6389 47.3203H14.0299C13.959 42.7891 14.2663 39.3594 17.4345 37H31.187C33.4568 39.4766 34.5601 42.7734 34.6389 47.3203ZM17.8995 35.6484V34H30.7929V35.6484H17.8995ZM31.2658 32.6406H17.4109C16.8119 32.2812 16.2445 31.8984 15.7007 31.5C15.614 31.3359 15.4564 31.2188 15.2751 31.1797C10.0736 27.0859 8.03238 21.3438 7.33096 18.7031C7.70926 18.7734 8.09543 18.7891 8.4816 18.7266C9.23818 18.6094 9.92384 18.25 10.4361 17.7031C10.9563 18.25 11.634 18.6094 12.3906 18.7266C12.5719 18.7578 12.7531 18.7656 12.9344 18.7656C13.6516 18.7656 14.3451 18.5391 14.9362 18.1172C15.677 17.5859 16.1657 16.7969 16.3075 15.9062C16.4257 15.1563 16.2918 14.3984 15.9292 13.7422C16.4415 13.5 16.8592 13.1406 17.1902 12.7109C17.1823 13.9141 17.7261 15.1094 18.7822 15.875C20.4136 17.0469 22.6754 16.7812 23.9837 15.3047C24.7403 16.1562 25.82 16.6094 26.9076 16.6094C27.7036 16.6094 28.4996 16.3672 29.1931 15.875C30.2492 15.1172 30.8008 13.9219 30.7851 12.7109C31.1082 13.1406 31.5338 13.5 32.046 13.7422C31.6835 14.3984 31.5495 15.1484 31.6677 15.9062C31.8096 16.8047 32.2982 17.5859 33.0391 18.1172C33.7799 18.6484 34.6862 18.8672 35.5846 18.7266C36.3412 18.6094 37.0269 18.25 37.5392 17.7031C38.0593 18.25 38.7371 18.6094 39.4937 18.7266C39.6749 18.7578 39.8562 18.7656 40.0375 18.7656C40.2818 18.7656 40.5182 18.7344 40.7546 18.6797C40.1241 21.3047 37.8544 28.3984 31.2658 32.6406ZM42.2126 12.6172C42.0865 12.6562 41.9526 12.6875 41.8186 12.7031C41.5506 12.7344 41.33 12.9141 41.2511 13.1641C41.1723 13.4141 41.2433 13.6875 41.4403 13.8672C41.5427 13.9609 41.6294 14.0625 41.7082 14.1719C42.0314 14.6172 42.1654 15.1562 42.0787 15.6953C41.992 16.2344 41.7004 16.7109 41.2511 17.0312C40.8019 17.3516 40.266 17.4844 39.7143 17.3984C39.1705 17.3125 38.6898 17.0234 38.3667 16.5781C38.2879 16.4688 38.2169 16.3516 38.1618 16.2266C38.0514 15.9844 37.8071 15.8359 37.5392 15.8359C37.2712 15.8359 37.0348 15.9922 36.9165 16.2266C36.8614 16.3516 36.7905 16.4688 36.7116 16.5781C36.3885 17.0234 35.9078 17.3125 35.364 17.3984C34.8202 17.4844 34.2764 17.3516 33.8272 17.0312C33.3779 16.7109 33.0863 16.2344 32.9996 15.6953C32.913 15.1562 33.0469 14.6172 33.3701 14.1797C33.4489 14.0703 33.5434 13.9688 33.6459 13.875C33.8429 13.6953 33.9139 13.4219 33.835 13.1719C33.7562 12.9219 33.5277 12.7422 33.2676 12.7109C33.1336 12.6953 32.9997 12.6641 32.8657 12.625C31.786 12.2734 31.1949 11.125 31.5417 10.0547C31.5811 9.9375 31.6362 9.82031 31.6914 9.71875C31.7938 9.59375 31.8884 9.45312 31.983 9.3125C32.511 8.74219 33.3464 8.48438 34.1424 8.74219C34.2685 8.78125 34.3946 8.83594 34.5128 8.90625C34.7493 9.03906 35.033 9.01562 35.2458 8.86719C35.4585 8.71094 35.5689 8.44531 35.5137 8.1875C35.4901 8.05469 35.4743 7.92188 35.4743 7.78906C35.4743 6.66406 36.3964 5.75 37.5313 5.75C38.6661 5.75 39.5882 6.66406 39.5882 7.78906C39.5882 7.92188 39.5725 8.05469 39.5488 8.19531C39.4937 8.45312 39.604 8.71875 39.8168 8.875C40.0296 9.03125 40.3212 9.04688 40.5497 8.91406C40.6679 8.85156 40.794 8.79688 40.9201 8.75C41.9998 8.39844 43.1662 8.99219 43.513 10.0625C43.8834 11.1172 43.2923 12.2734 42.2126 12.6172Z" fill="#1B7261"/>
</svg>
