<svg width="50" height="50" viewBox="0 0 50 50" fill="none" xmlns="http://www.w3.org/2000/svg">
<path d="M36.7965 10.2993C38.3659 11.7512 39.9131 12.8075 39.9783 12.8517C40.1439 12.9646 40.3354 13.0207 40.5273 13.0207C40.7191 13.0207 40.9106 12.9646 41.0762 12.8517C41.1414 12.8075 42.6887 11.7512 44.258 10.2993C46.5331 8.19435 47.639 6.41708 47.639 4.8645C47.639 2.18239 45.6069 0 43.1091 0C42.1817 0 41.2799 0.308609 40.5273 0.867462C39.775 0.308609 38.8728 0 37.9455 0C35.4476 0 33.4155 2.18239 33.4155 4.8645C33.4155 6.41708 34.5214 8.19435 36.7965 10.2993ZM37.9455 1.95312C38.644 1.95312 39.2986 2.26517 39.7887 2.83165C39.9741 3.04604 40.2435 3.16925 40.5273 3.16925C40.8107 3.16925 41.0804 3.04604 41.2658 2.83165C41.7556 2.26517 42.4102 1.95312 43.1087 1.95312C44.5296 1.95312 45.6859 3.25928 45.6859 4.8645C45.6859 6.53114 42.72 9.25522 40.5273 10.8498C38.3342 9.25484 35.3687 6.53114 35.3687 4.8645C35.3687 3.25928 36.5245 1.95312 37.9455 1.95312Z" fill="#1B7261"/>
<path d="M35.4153 24.1511C35.3283 23.7395 35.1997 23.334 35.0273 22.9396L32.5008 17.1542C30.9883 13.6901 26.939 12.1024 23.4745 13.6153C22.0333 14.2447 20.9183 15.314 20.2148 16.5965V15.3338C20.2148 12.7505 18.1129 10.6486 15.5293 10.6486H11.4239C8.84018 10.6482 6.73828 12.7501 6.73828 15.3338V19.2382C6.73828 21.1238 7.51762 22.8297 8.76999 24.0538C3.86887 24.4433 0 28.556 0 33.5551V49.0233C0 49.5627 0.437164 49.9999 0.976563 49.9999H43.75C44.2894 49.9999 44.7266 49.5627 44.7266 49.0233V45.3124C44.7266 44.773 44.2894 44.3358 43.75 44.3358C43.2106 44.3358 42.7734 44.773 42.7734 45.3124V48.0468H40.5151V38.4765C40.5151 37.9371 40.078 37.4999 39.5386 37.4999C38.9992 37.4999 38.562 37.9371 38.562 38.4765V48.0468H26.4771V43.0667C27.8866 44.11 29.4151 45.0023 31.0452 45.7213L31.2977 45.8331C32.7835 46.4885 34.5043 45.9769 35.3909 44.6166C35.8715 43.8785 36.0363 42.9973 35.854 42.1355C35.672 41.2738 35.165 40.5345 34.4269 40.0538L33.4412 39.4126C30.5153 37.5083 28.0754 34.912 26.3527 31.8793C26.9337 32.0552 27.541 32.1475 28.1555 32.1475C28.9829 32.1475 29.8237 31.9812 30.6294 31.6295L31.8253 31.1068C33.3435 30.4438 34.5127 29.2292 35.1177 27.6866C35.3138 27.1861 35.442 26.6707 35.5042 26.1508C39.6927 26.9778 42.7734 30.6712 42.7734 35.0097V37.4999C42.7734 38.0393 43.2106 38.4765 43.75 38.4765C44.2894 38.4765 44.7266 38.0393 44.7266 37.4999V35.0097C44.7266 29.5726 40.7482 24.9663 35.4153 24.1511ZM19.664 21.9039C19.7399 22.1518 19.8292 22.3983 19.9356 22.6413L21.2154 25.5725C20.2091 24.9698 19.1052 24.5307 17.9436 24.277C18.6775 23.6255 19.2688 22.8171 19.664 21.9039ZM8.69141 19.2382V15.3338C8.69141 13.8274 9.91707 12.6017 11.4239 12.6017H15.5293C17.0361 12.6017 18.2617 13.8274 18.2617 15.3338V19.2382C18.2617 21.8768 16.1152 24.0233 13.4766 24.0233C10.8379 24.0233 8.69141 21.8768 8.69141 19.2382ZM24.5239 41.7968V48.0468H22.2656V39.0647C22.9774 39.9314 23.7484 40.7432 24.5712 41.4969C24.5407 41.5915 24.5239 41.6922 24.5239 41.7968ZM32.3757 41.0491L33.3614 41.6907C33.6624 41.8868 33.8688 42.1882 33.9432 42.5391C34.0176 42.8904 33.9504 43.2498 33.7544 43.5504C33.3931 44.1047 32.6916 44.3133 32.0862 44.0459L31.8337 43.9345C27.8088 42.1584 24.4488 39.2478 22.1172 35.5174C21.8864 35.1481 21.4382 34.9765 21.0197 35.0963C20.6009 35.2164 20.3125 35.5994 20.3125 36.0351V48.0468H6.64063V39.1601C6.64063 38.6207 6.20346 38.1835 5.66406 38.1835C5.12466 38.1835 4.6875 38.6207 4.6875 39.1601V48.0468H1.95313V33.5551C1.95313 29.3761 5.35278 25.9765 9.53179 25.9765H15.6006C18.9278 25.9765 21.9646 27.8018 23.5256 30.7406L24.3313 32.2577C26.2199 35.8134 29.0016 38.8533 32.3757 41.0491ZM33.2993 26.9736C32.885 28.0303 32.0839 28.8627 31.0436 29.317L29.8473 29.8392C27.6997 30.7773 25.19 29.7927 24.2519 27.6454L21.7255 21.86C20.6436 19.3824 21.7789 16.487 24.2561 15.4048C24.8928 15.1271 25.5569 14.9955 26.2112 14.9955C28.1021 14.9955 29.9072 16.0952 30.711 17.9358L33.2375 23.7212C33.6918 24.7619 33.7139 25.9166 33.2993 26.9736Z" fill="#1B7261"/>
<path d="M43.75 40.4297C43.4933 40.4297 43.2411 40.5342 43.0595 40.7158C42.878 40.8974 42.7734 41.1495 42.7734 41.4062C42.7734 41.663 42.878 41.9151 43.0595 42.0967C43.2411 42.2783 43.4933 42.3828 43.75 42.3828C44.0067 42.3828 44.2589 42.2783 44.4405 42.0967C44.622 41.9151 44.7266 41.663 44.7266 41.4062C44.7266 41.1495 44.622 40.8974 44.4405 40.7158C44.2589 40.5342 44.0067 40.4297 43.75 40.4297Z" fill="#1B7261"/>
<path d="M5.66406 34.2773C5.40733 34.2773 5.15518 34.3819 4.9736 34.5634C4.79202 34.745 4.6875 34.9972 4.6875 35.2539C4.6875 35.5106 4.79202 35.7628 4.9736 35.9444C5.15518 36.1259 5.40733 36.2305 5.66406 36.2305C5.92079 36.2305 6.17294 36.1259 6.35452 35.9444C6.5361 35.7628 6.64062 35.5106 6.64062 35.2539C6.64062 34.9972 6.5361 34.745 6.35452 34.5634C6.17294 34.3819 5.92079 34.2773 5.66406 34.2773Z" fill="#1B7261"/>
<path d="M49.0234 16.862H48.1445V15.9831C48.1445 15.4437 47.7074 15.0065 47.168 15.0065C46.6286 15.0065 46.1914 15.4437 46.1914 15.9831V16.862H45.3125C44.7731 16.862 44.3359 17.2992 44.3359 17.8386C44.3359 18.3776 44.7731 18.8151 45.3125 18.8151H46.1914V19.694C46.1914 20.233 46.6286 20.6706 47.168 20.6706C47.7074 20.6706 48.1445 20.233 48.1445 19.694V18.8151H49.0234C49.5628 18.8151 50 18.3776 50 17.8386C50 17.2992 49.5628 16.862 49.0234 16.862Z" fill="#1B7261"/>
<path d="M19.873 7.22656H20.752V8.10547C20.752 8.64487 21.1891 9.08203 21.7285 9.08203C22.2679 9.08203 22.7051 8.64487 22.7051 8.10547V7.22656H23.584C24.1234 7.22656 24.5605 6.7894 24.5605 6.25C24.5605 5.7106 24.1234 5.27344 23.584 5.27344H22.7051V4.39453C22.7051 3.85513 22.2679 3.41797 21.7285 3.41797C21.1891 3.41797 20.752 3.85513 20.752 4.39453V5.27344H19.873C19.3336 5.27344 18.8965 5.7106 18.8965 6.25C18.8965 6.7894 19.3336 7.22656 19.873 7.22656Z" fill="#1B7261"/>
</svg>
