<svg width="50" height="50" viewBox="0 0 50 50" fill="none" xmlns="http://www.w3.org/2000/svg">
<path d="M49.1667 34.9985H46.6667V24.9974C46.6667 23.1562 45.1743 21.6637 43.3333 21.6637H40V13.3294C40 11.4883 38.5076 9.99575 36.6667 9.99575H26.6817L31.0833 6.57871C32.6856 5.33118 32.9733 3.02093 31.726 1.41846C30.4788 -0.184002 28.1686 -0.471742 26.5664 0.775685C26.1882 1.07009 25.8714 1.43555 25.6334 1.85153L25.2259 2.56494L24.8184 1.85153C23.8089 0.089465 21.5623 -0.520601 19.8004 0.488988C18.0385 1.49858 17.4286 3.74538 18.4381 5.50745C18.6752 5.92135 18.9906 6.28514 19.3668 6.57861L23.7651 9.99565H13.3333C11.4924 9.99565 10 11.4882 10 13.3293V21.6636H6.66667C4.82573 21.6636 3.33333 23.1561 3.33333 24.9973V34.9984H0.833333C0.373125 34.9984 0 35.3715 0 35.8318C0.00270833 38.132 1.86667 39.9962 4.16667 39.9989H22.5V44.9995H19.1667C16.8667 45.0022 15.0027 46.8663 15 49.1666C15 49.6268 15.3731 50 15.8333 50H34.1667C34.6269 50 35 49.6268 35 49.1666C34.9973 46.8663 33.1333 45.0022 30.8333 44.9995H27.5V39.9989H45.8333C48.1333 39.9962 49.9973 38.132 50 35.8318C50 35.3715 49.6269 34.9985 49.1667 34.9985ZM20.3908 5.25857C19.5371 4.59818 19.3589 3.38066 19.9875 2.50327C20.3593 1.97207 20.9683 1.65734 21.6167 1.66151C21.6525 1.66151 21.6892 1.66151 21.725 1.66151C22.4115 1.68933 23.0341 2.07187 23.3692 2.67162L24.5 4.6535C24.7285 5.05303 25.2376 5.19158 25.6372 4.96302C25.7661 4.88926 25.8729 4.78237 25.9467 4.6535L27.0783 2.67412C27.6286 1.71047 28.8558 1.37544 29.8195 1.92581C30.0717 2.06989 30.2897 2.26689 30.4583 2.50327C31.0875 3.38003 30.9104 4.59746 30.0575 5.25857L25.2242 9.01898L20.3908 5.25857ZM11.6667 14.9963H12.5V13.3294H11.6667C11.6667 12.4088 12.4128 11.6626 13.3333 11.6626H36.6667C37.5872 11.6626 38.3333 12.4088 38.3333 13.3294H37.5V14.9963H38.3333V17.209C37.2365 16.8202 36.31 16.0603 35.7142 15.0605C35.477 14.6661 34.965 14.5385 34.5705 14.7758C34.4538 14.846 34.3559 14.9438 34.2857 15.0605C32.876 17.4277 29.8145 18.2038 27.4474 16.794C26.7345 16.3694 26.1386 15.7735 25.7141 15.0605C25.4769 14.6661 24.9649 14.5385 24.5704 14.7758C24.4536 14.846 24.3559 14.9438 24.2857 15.0605C22.876 17.4277 19.8145 18.2038 17.4474 16.794C16.7344 16.3694 16.1386 15.7735 15.7141 15.0605C15.4437 14.6661 14.9048 14.5654 14.5104 14.8358C14.4223 14.8962 14.3461 14.9723 14.2857 15.0605C13.6899 16.0603 12.7634 16.8202 11.6666 17.209L11.6667 14.9963ZM11.6667 18.9451C12.9584 18.6148 14.1203 17.9019 15 16.8998C17.4263 19.6616 21.6318 19.9333 24.3932 17.5067C24.6083 17.3177 24.811 17.115 25 16.8998C27.4262 19.6616 31.6318 19.9333 34.3932 17.5067C34.6083 17.3177 34.811 17.115 35 16.8998C35.8797 17.9019 37.0416 18.6148 38.3333 18.9451V21.6637H11.6667V18.9451ZM5 26.6642H6.66667V24.9974H5C5 24.0768 5.74615 23.3305 6.66667 23.3305H43.3333C44.2539 23.3305 45 24.0768 45 24.9974H43.3333V26.6642H45V29.1645C43.2407 29.1694 41.6102 28.2426 40.7142 26.7284C40.477 26.334 39.965 26.2065 39.5705 26.4437C39.4538 26.5139 39.3559 26.6117 39.2857 26.7284C37.876 29.0956 34.8145 29.8718 32.4474 28.4619C31.7345 28.0373 31.1386 27.4414 30.7141 26.7284C30.4438 26.334 29.9048 26.2334 29.5104 26.5037C29.4223 26.5641 29.3461 26.6403 29.2857 26.7284C27.876 29.0956 24.8145 29.8718 22.4474 28.4619C21.7344 28.0373 21.1386 27.4414 20.7141 26.7284C20.4437 26.334 19.9048 26.2334 19.5104 26.5037C19.4223 26.5641 19.3461 26.6403 19.2857 26.7284C17.876 29.0956 14.8145 29.8718 12.4474 28.4619C11.7344 28.0373 11.1386 27.4414 10.7141 26.7284C10.4438 26.334 9.90479 26.2334 9.51042 26.5037C9.42229 26.5641 9.34615 26.6403 9.28573 26.7284C8.38979 28.2425 6.75927 29.1693 5 29.1645V26.6642ZM5 30.8314C6.91615 30.8389 8.74083 30.013 10 28.5686C12.4262 31.3304 16.6318 31.6021 19.3932 29.1754C19.6083 28.9865 19.811 28.7837 20 28.5686C22.4262 31.3304 26.6318 31.6021 29.3932 29.1754C29.6083 28.9865 29.811 28.7837 30 28.5686C32.4263 31.3304 36.6318 31.6021 39.3932 29.1754C39.6083 28.9865 39.811 28.7837 40 28.5686C41.2592 30.013 43.084 30.8389 45 30.8314V34.9985H5V30.8314ZM30.8333 46.6664C31.8925 46.6677 32.8364 47.335 33.1908 48.3333H16.8092C17.1636 47.335 18.1075 46.6677 19.1667 46.6664H30.8333ZM24.1667 44.9996V39.999H25.8333V44.9996H24.1667ZM45.8333 38.3322H4.16667C3.1075 38.3309 2.16365 37.6636 1.80917 36.6653H48.1908C47.8364 37.6634 46.8925 38.3308 45.8333 38.3322Z" fill="#1B7261"/>
<path d="M20.8338 13.3293H19.167V14.9962H20.8338V13.3293Z" fill="#1B7261"/>
<path d="M30.8334 13.3293H29.1665V14.9962H30.8334V13.3293Z" fill="#1B7261"/>
<path d="M15.8338 24.9973H14.167V26.6642H15.8338V24.9973Z" fill="#1B7261"/>
<path d="M25.8338 24.9973H24.167V26.6642H25.8338V24.9973Z" fill="#1B7261"/>
<path d="M35.8334 24.9973H34.1665V26.6642H35.8334V24.9973Z" fill="#1B7261"/>
</svg>
