<svg width="41" height="60" viewBox="0 0 41 60" fill="none" xmlns="http://www.w3.org/2000/svg">
<path d="M0 55.9991V58.9998C0 59.5526 0.447541 60 1.00061 60H39.0236C39.5767 60 40.0242 59.5526 40.0242 58.9998V55.9991C40.0242 50.8184 37.6877 46.1792 34.0206 43.0579V21.9912C34.0525 17.2492 31.5472 12.7178 27.5372 10.1839L29.9126 5.43467C30.2809 4.74475 29.6522 3.86424 28.8759 3.99733C22.7902 4.86765 21.0117 0.783698 20.9414 0.614709C20.6425 -0.20237 19.392 -0.20549 19.0858 0.608908C19.0135 0.782718 17.2399 4.86471 11.1483 3.99732C10.3752 3.85886 9.74045 4.74718 10.1116 5.43466C10.1116 5.43466 12.4861 10.1819 12.4861 10.1819C8.4646 12.7434 6.00363 17.1835 6.00363 21.9912V43.0579C2.33655 46.1792 0 50.8184 0 55.9991ZM12.7831 6.11892C16.681 6.11892 18.9001 4.24251 20.0121 2.8457C21.106 4.25088 23.4603 6.16965 27.3329 6.11843L25.764 9.2552C22.1568 7.64179 17.8658 7.64246 14.2601 9.25489L12.6913 6.11843C12.7216 6.11892 12.7519 6.11892 12.7831 6.11892ZM8.00484 21.9912C7.96698 11.3869 21.0302 5.96751 28.5007 13.5065C30.7696 15.7749 32.0194 18.7883 32.0194 21.9912V41.5999C29.6709 40.1269 26.9434 39.2174 24.0145 39.0458V38.0324C27.0671 36.513 29.0176 33.4425 29.0176 29.9931V26.0659C29.7734 26.1265 30.7314 25.9298 30.6738 24.9753C30.6357 24.4249 30.1579 24.0093 29.6078 24.0454C22.1443 24.5475 18.9196 17.8526 18.7868 17.5693C18.6089 17.1864 18.2151 16.9535 17.7871 16.9945C17.366 17.0331 17.0152 17.3324 16.9097 17.7422C16.0117 21.2445 10.7585 22.5338 10.7057 22.5465C9.53586 22.8207 9.79713 24.6007 11.0067 24.4987V29.9931C10.9813 33.359 12.9564 36.5711 16.0097 38.0487V39.0458C13.0808 39.2174 10.3533 40.1269 8.00484 41.5999V21.9912ZM29.6893 45.0786C27.7318 44.5738 25.7318 46.3436 26.0516 48.3519C25.2989 48.7942 24.5106 49.1562 23.6888 49.4221C22.3987 46.2292 17.6247 46.2307 16.3354 49.4221C15.5137 49.1562 14.7253 48.7942 13.9726 48.3518C14.2924 46.3435 12.2923 44.5738 10.335 45.0786C9.90021 44.4898 9.51998 43.8663 9.20314 43.2094C11.2541 41.9537 13.6237 41.1809 16.1651 41.0384C17.2114 44.9439 22.8141 44.9415 23.8592 41.0384C26.4005 41.1809 28.7702 41.9537 30.8211 43.2094C30.5043 43.8663 30.1241 44.4899 29.6893 45.0786ZM30.0182 47.9972C29.9951 49.3117 28.0398 49.3116 28.017 47.9972C28.04 46.6827 29.9953 46.6828 30.0182 47.9972ZM22.0133 50.9979C21.9438 53.6356 18.08 53.6351 18.0109 50.9979C18.0805 48.3602 21.9442 48.3607 22.0133 50.9979ZM12.0073 47.9972C11.9842 49.3117 10.0289 49.3116 10.0061 47.9972C10.0291 46.6827 11.9844 46.6828 12.0073 47.9972ZM17.3904 36.4897C14.76 35.4441 12.9822 32.8021 13.0079 29.9931V23.8825C14.5688 23.2512 16.744 22.0803 18.0148 20.1246C19.4383 22.1348 22.3616 25.2715 27.0163 25.9388V29.9931C27.1632 34.8286 21.7998 38.3939 17.3904 36.4897ZM22.0133 38.761V39.9954C22.0133 41.0982 21.1153 41.9958 20.0121 41.9958C18.9089 41.9958 18.0109 41.0982 18.0109 39.9954V38.7612C19.323 39.0702 20.7006 39.0702 22.0133 38.761ZM7.54705 44.367C7.86731 44.9926 8.23368 45.5934 8.64738 46.1642C6.40389 49.1055 10.408 52.6784 13.0871 50.1521C14.0281 50.6921 15.0204 51.1143 16.0524 51.4198C16.6154 56.1441 23.4103 56.1409 23.9718 51.4198C25.0038 51.1143 25.9961 50.6921 26.9371 50.1521C29.6188 52.6793 33.6195 49.103 31.3769 46.1642C31.7906 45.5935 32.157 44.9928 32.4772 44.3671C35.8577 47.1203 38.023 51.3101 38.023 55.9991V57.9995H2.00121V55.9991C2.00121 51.3101 4.16652 47.1203 7.54705 44.367Z" fill="#1B7261"/>
<rect width="100" height="100" rx="50" fill="#1B7261" fill-opacity="0.1"/>
</svg>
