<svg width="100" height="100" viewBox="0 0 100 100" fill="none" xmlns="http://www.w3.org/2000/svg">
<rect width="100" height="100" rx="50" fill="#1B7261"/>
<path d="M75.1377 32.1936L78.6385 40.8065L74.3597 39.5484L72.1231 43.4194L68.4277 34.4194" stroke="white" stroke-width="2" stroke-miterlimit="10" stroke-linecap="round" stroke-linejoin="round"/>
<path d="M57.8286 72.3548H69.2063V63.2581H57.8286" stroke="white" stroke-width="2" stroke-miterlimit="10" stroke-linecap="round" stroke-linejoin="round"/>
<path d="M41.9771 72.3548H30.8911V63.2581H41.9771" stroke="white" stroke-width="2" stroke-miterlimit="10" stroke-linecap="round" stroke-linejoin="round"/>
<path d="M66.2884 55.8065H57.6336L56.0777 52.4194C55.6887 51.4516 54.7162 50.871 53.6465 50.871H46.3531C45.2834 50.871 44.4082 51.4516 43.922 52.4194L42.4633 55.8065H33.8085C32.2525 55.8065 30.8911 57.0645 30.8911 58.7097V77.0968C30.8911 78.6452 32.1553 80 33.8085 80H66.2884C67.8443 80 69.2058 78.7419 69.2058 77.0968V58.6129C69.2058 57.0645 67.8443 55.8065 66.2884 55.8065Z" stroke="white" stroke-width="2" stroke-miterlimit="10" stroke-linecap="round" stroke-linejoin="round"/>
<path d="M50.0485 76.6129C54.9359 76.6129 58.8979 72.6701 58.8979 67.8065C58.8979 62.9428 54.9359 59 50.0485 59C45.1612 59 41.1992 62.9428 41.1992 67.8065C41.1992 72.6701 45.1612 76.6129 50.0485 76.6129Z" stroke="white" stroke-width="2" stroke-miterlimit="10" stroke-linecap="round" stroke-linejoin="round"/>
<path d="M50.0486 72.3548C52.5728 72.3548 54.6191 70.3184 54.6191 67.8064C54.6191 65.2944 52.5728 63.2581 50.0486 63.2581C47.5243 63.2581 45.478 65.2944 45.478 67.8064C45.478 70.3184 47.5243 72.3548 50.0486 72.3548Z" stroke="white" stroke-width="2" stroke-miterlimit="10" stroke-linecap="round" stroke-linejoin="round"/>
<path d="M50.0489 69.1613C50.8008 69.1613 51.4104 68.5548 51.4104 67.8065C51.4104 67.0582 50.8008 66.4517 50.0489 66.4517C49.297 66.4517 48.6875 67.0582 48.6875 67.8065C48.6875 68.5548 49.297 69.1613 50.0489 69.1613Z" stroke="white" stroke-width="2" stroke-miterlimit="10" stroke-linecap="round" stroke-linejoin="round"/>
<path d="M34.9761 59.5807H37.7962" stroke="white" stroke-width="2" stroke-miterlimit="10" stroke-linecap="round" stroke-linejoin="round"/>
<path d="M39.4485 29L41.6852 37.5161L37.7954 35.871L35.267 39.2581L32.9331 30.3548" stroke="white" stroke-width="2" stroke-miterlimit="10" stroke-linecap="round" stroke-linejoin="round"/>
<path d="M66.1914 20.871L70.1785 28.8065L66.0942 27.9355L64.2465 31.7097L60.0649 23.4839" stroke="white" stroke-width="2" stroke-miterlimit="10" stroke-linecap="round" stroke-linejoin="round"/>
<path d="M61.9121 36.8386L65.4129 45.5483L61.0369 44.2902L58.8002 48.1612L55.2021 39.0644" stroke="white" stroke-width="2" stroke-miterlimit="10" stroke-linecap="round" stroke-linejoin="round"/>
<path d="M20 30.7419C30.697 30.1613 51.1185 27.9355 68.1364 20" stroke="white" stroke-width="2" stroke-miterlimit="10" stroke-linecap="round" stroke-linejoin="round"/>
<path d="M20.9722 44.9677C31.2802 43.9032 57.4392 40.3225 80.0001 29.2903" stroke="white" stroke-width="2" stroke-miterlimit="10" stroke-linecap="round" stroke-linejoin="round"/>
<path d="M52.7713 25.8064L55.3969 34.2258L51.4099 32.7741L49.076 36.258L46.2559 27.4516" stroke="white" stroke-width="2" stroke-miterlimit="10" stroke-linecap="round" stroke-linejoin="round"/>
</svg>
