<svg width="100" height="100" viewBox="0 0 100 100" fill="none" xmlns="http://www.w3.org/2000/svg">
<path d="M0 50C0 22.3858 22.3858 0 50 0C77.6142 0 100 22.3858 100 50C100 77.6142 77.6142 100 50 100C22.3858 100 0 77.6142 0 50Z" fill="#1B7261" fill-opacity="0.08"/>
<path d="M76.1812 36.5604C75.6617 36.5604 75.2437 36.1239 75.2437 35.5814V25.315H58.2168C57.6973 25.315 57.2793 24.8786 57.2793 24.3361C57.2793 23.7936 57.6973 23.3572 58.2168 23.3572H76.1812C76.7007 23.3572 77.1187 23.7936 77.1187 24.3361V35.5855C77.1187 36.1239 76.7007 36.5604 76.1812 36.5604Z" fill="#1B7261"/>
<path d="M76.1814 80.0001H65.498C64.9785 80.0001 64.5605 79.5636 64.5605 79.0212C64.5605 78.4787 64.9785 78.0422 65.498 78.0422H75.2439V40.6393C75.2439 40.0968 75.6618 39.6604 76.1814 39.6604C76.7009 39.6604 77.1188 40.0968 77.1188 40.6393V79.0171C77.1188 79.5596 76.7009 80.0001 76.1814 80.0001Z" fill="#1B7261"/>
<path d="M34.4987 80.0001H23.8154C23.2959 80.0001 22.8779 79.5636 22.8779 79.0212V40.6393C22.8779 40.0968 23.2998 39.6604 23.8154 39.6604C24.331 39.6604 24.7529 40.0968 24.7529 40.6393V78.0382H34.4987C35.0183 78.0382 35.4362 78.4746 35.4362 79.0171C35.4362 79.5596 35.0144 80.0001 34.4987 80.0001Z" fill="#1B7261"/>
<path d="M23.8154 36.5604C23.2959 36.5604 22.8779 36.1239 22.8779 35.5814V24.3361C22.8779 23.7936 23.2998 23.3572 23.8154 23.3572H40.9244C41.4439 23.3572 41.8618 23.7936 41.8618 24.3361C41.8618 24.8786 41.4439 25.315 40.9244 25.315H24.7529V35.5855C24.749 36.1239 24.331 36.5604 23.8154 36.5604Z" fill="#1B7261"/>
<path d="M34.4986 80C34.4166 80 34.3345 79.9877 34.2525 79.9673C33.7525 79.8246 33.4556 79.2902 33.5924 78.7681C35.5806 71.0836 32.3229 61.3556 30.8268 57.5297C30.6315 57.028 30.862 56.4569 31.3424 56.253C31.8229 56.049 32.3697 56.2897 32.565 56.7914C33.4361 59.0225 34.6314 62.5099 35.3892 66.4745C36.3267 71.3895 36.3345 75.7009 35.4048 79.2821C35.2876 79.7104 34.9126 80 34.4986 80ZM32.315 54.234C32.1354 54.234 31.9518 54.1809 31.7916 54.0667C31.3619 53.7649 31.2487 53.1571 31.5377 52.7085C34.8931 47.4916 36.5064 39.8438 37.2681 34.3456C37.3423 33.8112 37.8188 33.4401 38.3305 33.5176C38.8422 33.5951 39.1977 34.0927 39.1235 34.627C38.3344 40.3251 36.647 48.2789 33.0924 53.7975C32.9127 54.083 32.6158 54.234 32.315 54.234Z" fill="#1B7261"/>
<path d="M27.5065 80C27.4245 80 27.3424 79.9878 27.2604 79.9674C26.7604 79.8246 26.4635 79.2903 26.6003 78.7682C28.4401 71.6669 25.03 62.9015 23.3894 58.6881C23.2253 58.2639 23.0691 57.8642 22.9402 57.5175C22.7527 57.0158 22.9871 56.4447 23.4714 56.2489C23.9558 56.0532 24.4988 56.2979 24.6862 56.8037C24.8152 57.1422 24.9675 57.5338 25.1276 57.9539C25.9987 60.1891 27.3112 63.5704 28.1666 67.3352C29.1979 71.9035 29.2838 75.9212 28.4127 79.2821C28.2994 79.7104 27.9205 80 27.5065 80ZM23.8113 54.3686C23.6238 54.3686 23.4363 54.3115 23.2722 54.1891C22.8504 53.8791 22.7488 53.2673 23.0457 52.8268C26.4753 47.7323 29.3971 40.5291 30.1431 35.3123C30.1431 35.3082 30.1431 35.3041 30.1431 35.3L30.5377 32.7263C30.6197 32.192 31.1002 31.829 31.6119 31.9146C32.1236 32.0003 32.4712 32.502 32.3892 33.0363L31.9947 35.606C31.2095 41.0961 28.1588 48.6378 24.5808 53.9526C24.3972 54.2218 24.1081 54.3686 23.8113 54.3686Z" fill="#1B7261"/>
<path d="M33.073 58.1334H23.8154C23.2959 58.1334 22.8779 57.6969 22.8779 57.1545V53.3897C22.8779 52.8472 23.2998 52.4108 23.8154 52.4108H33.073C34.5847 52.4108 35.8151 53.6956 35.8151 55.2741C35.8151 56.8526 34.5847 58.1334 33.073 58.1334ZM24.749 56.1755H33.0691C33.5456 56.1755 33.9363 55.7717 33.9363 55.27C33.9363 54.7683 33.5495 54.3645 33.0691 54.3645H24.749V56.1755Z" fill="#1B7261"/>
<path d="M65.498 80C65.0839 80 64.705 79.7145 64.5917 79.278C63.6621 75.6968 63.6699 71.3855 64.6074 66.4705C65.3652 62.5059 66.5604 59.0185 67.4315 56.7873C67.6268 56.2857 68.1737 56.045 68.6541 56.2489C69.1346 56.4529 69.3651 57.0239 69.1698 57.5256C67.6737 61.3516 64.4121 71.0837 66.4042 78.7641C66.5409 79.2862 66.244 79.8246 65.7441 79.9633C65.662 79.9878 65.58 80 65.498 80ZM67.6815 54.2299C67.3807 54.2299 67.0839 54.079 66.9042 53.7976C63.3652 48.2993 61.6777 40.3823 60.8887 34.7127C60.8145 34.1784 61.1699 33.6807 61.6817 33.6032C62.1934 33.5258 62.6699 33.8969 62.7441 34.4313C63.5097 39.901 65.1191 47.5121 68.4627 52.7044C68.7518 53.1531 68.6385 53.7609 68.2088 54.0627C68.0409 54.1728 67.8612 54.2299 67.6815 54.2299Z" fill="#1B7261"/>
<path d="M72.4897 80.0001C72.0756 80.0001 71.6967 79.7146 71.5834 79.2782C70.7124 75.9172 70.7944 71.8995 71.8295 67.3312C72.6811 63.5665 73.9974 60.1851 74.8685 57.9499C75.0326 57.5339 75.1849 57.1382 75.3099 56.7997C75.4974 56.298 76.0443 56.0492 76.5247 56.245C77.0052 56.4408 77.2434 57.0118 77.056 57.5135C76.927 57.8602 76.7708 58.2599 76.6067 58.6841C74.9701 62.8976 71.5561 71.663 73.3959 78.7642C73.5326 79.2863 73.2357 79.8247 72.7357 79.9634C72.6537 79.9879 72.5717 80.0001 72.4897 80.0001ZM76.1849 54.3687C75.8841 54.3687 75.5872 54.2178 75.4076 53.9364C73.724 51.3259 72.0639 48.0995 70.7319 44.8487C69.3179 41.4021 68.3765 38.2043 68.0015 35.602L67.5523 32.4042C67.4781 31.8699 67.8335 31.3722 68.3452 31.2947C68.8569 31.2172 69.3335 31.5843 69.4077 32.1227L69.8569 35.3165C70.5522 40.1621 73.5404 47.5367 76.9661 52.8473C77.2552 53.296 77.1419 53.9037 76.7122 54.2056C76.5442 54.3157 76.3646 54.3687 76.1849 54.3687Z" fill="#1B7261"/>
<path d="M76.1814 58.1334H66.9238C65.4121 58.1334 64.1816 56.8486 64.1816 55.2701C64.1816 53.6916 65.4121 52.4067 66.9238 52.4067H76.1814C76.7009 52.4067 77.1188 52.8432 77.1188 53.3857V57.1504C77.1188 57.697 76.7009 58.1334 76.1814 58.1334ZM66.9238 54.3687C66.4472 54.3687 66.0566 54.7725 66.0566 55.2742C66.0566 55.7759 66.4433 56.1797 66.9238 56.1797H75.2439V54.3727L66.9238 54.3687Z" fill="#1B7261"/>
<path d="M36.8777 35.557C34.0066 35.557 31.3075 34.3905 29.2763 32.2695C27.2451 30.1485 26.1279 27.33 26.1279 24.3321C26.1279 23.7896 26.5459 23.3531 27.0654 23.3531C27.5849 23.3531 28.0029 23.7896 28.0029 24.3321C28.0029 29.4429 31.9833 33.5992 36.8777 33.5992C37.2761 33.5992 37.6784 33.5706 38.073 33.5176C39.5729 33.3055 41.0104 32.6896 42.2213 31.7352C42.6353 31.4088 43.2213 31.4945 43.5338 31.9269C43.8462 32.3592 43.7642 32.971 43.3502 33.2973C41.8815 34.4557 40.1432 35.2022 38.3229 35.4591C37.8464 35.5244 37.362 35.557 36.8777 35.557Z" fill="#1B7261"/>
<path d="M36.8777 32.143C32.7528 32.143 29.4014 28.6393 29.4014 24.3321C29.4014 23.7896 29.8193 23.3531 30.3388 23.3531C30.8584 23.3531 31.2763 23.7896 31.2763 24.3321C31.2763 27.5584 33.7919 30.1852 36.8817 30.1852C37.3855 30.1852 37.8855 30.1159 38.366 29.9772C39.1472 29.7528 39.8894 29.3409 40.5105 28.7902C40.905 28.4395 41.4948 28.4884 41.8308 28.9004C42.1667 29.3123 42.1198 29.9282 41.7253 30.279C40.8972 31.0173 39.905 31.5638 38.8621 31.8657C38.2176 32.0492 37.5496 32.143 36.8777 32.143Z" fill="#1B7261"/>
<path d="M62.2594 35.5571C62.0992 35.5571 61.9313 35.553 61.7672 35.5448C59.5915 35.4429 57.5251 34.6638 55.7869 33.2933C55.3728 32.967 55.2908 32.3552 55.6033 31.9228C55.9158 31.4905 56.5017 31.4048 56.9158 31.7311C58.3493 32.861 60.0563 33.5054 61.8492 33.587C61.9859 33.5952 62.1227 33.5952 62.2555 33.5952C67.1499 33.5952 71.1303 29.4388 71.1303 24.328C71.1303 23.7856 71.5482 23.3491 72.0677 23.3491C72.5872 23.3491 73.0052 23.7856 73.0052 24.328C73.0052 27.326 71.888 30.1445 69.8568 32.2655C67.8256 34.3864 65.1304 35.5571 62.2594 35.5571Z" fill="#1B7261"/>
<path d="M62.2597 32.1432C61.9316 32.1432 61.6035 32.1228 61.2792 32.0779C59.8535 31.8821 58.5176 31.2621 57.4161 30.2791C57.0215 29.9284 56.9747 29.3125 57.3106 28.9005C57.6465 28.4885 58.2363 28.4396 58.6309 28.7904C59.4551 29.5245 60.4589 29.9895 61.5253 30.1364C61.7675 30.169 62.0136 30.1853 62.2597 30.1853C65.3495 30.1853 67.865 27.5586 67.865 24.3322C67.865 23.7897 68.283 23.3533 68.8025 23.3533C69.322 23.3533 69.74 23.7897 69.74 24.3322C69.74 28.6394 66.3846 32.1432 62.2597 32.1432Z" fill="#1B7261"/>
<path d="M49.5689 39.6481C49.4361 39.6481 49.3072 39.6195 49.1861 39.5624C47.565 38.7997 46.0299 37.7025 44.6276 36.2994C43.3151 34.9901 42.1784 33.4727 41.2449 31.7923C40.5144 30.4789 40.0457 29.2797 39.8113 28.1172C39.5144 26.6366 39.6004 25.1927 40.0613 23.9487C40.5886 22.5211 41.6472 21.3096 42.9597 20.6326C45.0963 19.5272 47.7369 19.9065 49.5689 21.4891C51.4009 19.9065 54.0414 19.5272 56.182 20.6326C57.4984 21.3137 58.553 22.5211 59.0804 23.9487C59.5413 25.1927 59.6272 26.6366 59.3304 28.1172C59.096 29.2797 58.6273 30.4789 57.8968 31.7923C56.9632 33.4687 55.8226 34.986 54.5102 36.2994C53.1079 37.7025 51.5727 38.7997 49.9517 39.5624C49.8306 39.6195 49.7017 39.6481 49.5689 39.6481ZM45.5768 21.9663C44.9596 21.9663 44.3464 22.105 43.7917 22.3905C42.8933 22.8555 42.1706 23.6794 41.8074 24.6584C41.4792 25.5516 41.4206 26.6081 41.6433 27.7175C41.8347 28.6719 42.2331 29.6835 42.862 30.8093C44.5221 33.7909 46.9479 36.2382 49.5689 37.5883C52.1899 36.2382 54.6195 33.7909 56.2758 30.8093C56.9046 29.6794 57.3031 28.6679 57.4945 27.7175C57.7171 26.6081 57.6624 25.5476 57.3304 24.6584C56.9671 23.6835 56.2445 22.8555 55.3461 22.3905C53.6899 21.534 51.5102 22.0112 50.272 23.4959C50.0923 23.7121 49.8345 23.8344 49.565 23.8344C49.2955 23.8344 49.0337 23.7121 48.858 23.4959C48.0416 22.5047 46.7994 21.9663 45.5768 21.9663Z" fill="#1B7261"/>
<path d="M23.8151 41.6182C23.6823 41.6182 23.5534 41.5897 23.4323 41.5326C22.2995 41.0023 21.2956 40.0234 20.6042 38.7753C20.3308 38.294 20.155 37.8453 20.0691 37.4048C19.948 36.8052 19.9871 36.2138 20.1785 35.6958C20.405 35.0839 20.8581 34.57 21.4167 34.2763C22.1784 33.8848 23.0846 33.9296 23.8151 34.3457C24.5455 33.9296 25.4518 33.8807 26.2135 34.2763C26.776 34.5659 27.2252 35.0839 27.4517 35.6958C27.6431 36.2138 27.6822 36.8052 27.5611 37.4048C27.4713 37.8453 27.2994 38.294 27.0299 38.7753C26.3346 40.0193 25.3307 40.9983 24.2018 41.5326C24.0768 41.5897 23.944 41.6182 23.8151 41.6182ZM22.5378 35.965C22.4362 35.965 22.3347 35.9854 22.2448 36.0343C22.1003 36.1077 21.9792 36.2464 21.9206 36.4014C21.862 36.5646 21.8542 36.7767 21.8972 37.001C21.944 37.2335 22.0495 37.4945 22.2136 37.7923C22.6198 38.5265 23.1862 39.1424 23.8073 39.5339C24.4284 39.1383 24.9948 38.5224 25.401 37.7923C25.569 37.4945 25.6705 37.2335 25.7174 37.001C25.7643 36.7767 25.7565 36.5605 25.694 36.4014C25.6354 36.2464 25.5143 36.1077 25.3697 36.0343C25.0963 35.8915 24.7213 35.9772 24.5143 36.226C24.3346 36.4422 24.0768 36.5646 23.8073 36.5646C23.5339 36.5646 23.276 36.4422 23.1003 36.226C22.9636 36.0547 22.7487 35.965 22.5378 35.965Z" fill="#1B7261"/>
<path d="M76.1813 41.6181C76.0485 41.6181 75.9196 41.5896 75.7985 41.5325C74.6657 41.0022 73.6618 40.0233 72.9704 38.7752C72.7009 38.2939 72.5291 37.8452 72.4392 37.4047C72.3181 36.8051 72.3572 36.2137 72.5486 35.6956C72.7751 35.0838 73.2243 34.5699 73.7868 34.2762C74.5485 33.8846 75.4548 33.9295 76.1852 34.3455C76.9157 33.9295 77.8219 33.8806 78.5836 34.2762C79.1461 34.5658 79.5953 35.0838 79.8218 35.6956C80.0132 36.2137 80.0523 36.8051 79.9312 37.4047C79.8414 37.8452 79.6695 38.2939 79.4 38.7752C78.7047 40.0192 77.7008 40.9981 76.5719 41.5325C76.4469 41.5896 76.3141 41.6181 76.1813 41.6181ZM74.9079 35.9648C74.8063 35.9648 74.7048 35.9852 74.6149 36.0342C74.4704 36.1076 74.3493 36.2463 74.2907 36.4013C74.2321 36.5644 74.2243 36.7765 74.2673 37.0009C74.3142 37.2334 74.4196 37.4944 74.5837 37.7922C74.9899 38.5264 75.5563 39.1423 76.1774 39.5338C76.7946 39.1382 77.361 38.5223 77.7711 37.7922C77.9391 37.4944 78.0406 37.2334 78.0875 37.0009C78.1344 36.7765 78.1266 36.5604 78.0641 36.4013C78.0055 36.2463 77.8844 36.1076 77.7399 36.0342C77.4664 35.8914 77.0914 35.9771 76.8844 36.2259C76.7047 36.4421 76.4469 36.5644 76.1774 36.5644C75.9079 36.5644 75.6462 36.4421 75.4704 36.2259C75.3376 36.0546 75.1188 35.9648 74.9079 35.9648Z" fill="#1B7261"/>
</svg>
