<svg width="100" height="100" viewBox="0 0 100 100" fill="none" xmlns="http://www.w3.org/2000/svg">
<rect width="100" height="100" rx="50" fill="#1B7261" fill-opacity="0.1"/>
<path d="M47.0605 28.4375C47.0605 29.9884 48.3611 31.25 49.9599 31.25C51.5587 31.25 52.8593 29.9884 52.8593 28.4375C52.8593 26.8866 51.5587 25.625 49.9599 25.625C48.3611 25.625 47.0605 26.8866 47.0605 28.4375ZM49.9599 27.5C50.4927 27.5 50.9264 27.9207 50.9264 28.4375C50.9264 28.9543 50.4927 29.375 49.9599 29.375C49.4271 29.375 48.9935 28.9543 48.9935 28.4375C48.9935 27.9207 49.4271 27.5 49.9599 27.5Z" fill="#1B7261"/>
<path d="M79.8705 51.1984C79.7422 50.9833 79.5312 50.8258 79.2835 50.7617L77.5103 50.3009C78.4373 49.1511 78.9537 47.7327 78.9537 46.25V44.375C78.9537 43.8573 78.5209 43.4375 77.9872 43.4375H76.1519C76.7405 42.0942 76.8606 40.5945 76.4649 39.1624L75.9646 37.3511C75.8985 37.1108 75.7362 36.9061 75.5144 36.7816C75.2917 36.6576 75.027 36.6233 74.7811 36.6882L73.0079 37.1494C73.218 35.7041 72.9341 34.2251 72.17 32.941L71.2036 31.3173C70.936 30.8687 70.3442 30.7149 69.8832 30.974L68.2094 31.9115C68.0689 31.9902 67.9378 32.0805 67.8046 32.168C66.4037 30.9688 64.8844 29.9161 63.2681 29.0248C63.4095 28.5391 63.4904 28.029 63.4904 27.5V25.625C63.4904 25.1073 63.0576 24.6875 62.524 24.6875H60.2606C60.4747 24.0981 60.591 23.4667 60.591 22.8125V20.9375C60.591 20.4198 60.1583 20 59.6246 20H56.7252C55.025 20 53.4658 20.7029 52.3829 21.8974C51.7527 21.3047 50.8996 20.9375 49.9601 20.9375C49.0205 20.9375 48.1674 21.3047 47.5373 21.8974C46.4543 20.7029 44.8952 20 43.1949 20H40.2955C39.7618 20 39.3291 20.4198 39.3291 20.9375V22.8125C39.3291 23.4667 39.4454 24.0981 39.6595 24.6875H37.3962C36.8625 24.6875 36.4297 25.1073 36.4297 25.625V27.5C36.4297 28.0324 36.5114 28.5458 36.6546 29.0343C34.907 29.9915 33.2714 31.1285 31.7873 32.4366C31.0524 32.6305 30.3252 32.9257 29.6645 33.3268C28.4772 32.6059 27.0762 32.1875 25.7987 32.1875C22.6011 32.1875 20 34.7107 20 37.8125C20 41.4188 22.2556 43.7326 24.5649 45.1573L22.9036 62.0986C22.8588 62.5573 23.1641 62.9798 23.6242 63.0952C24.2495 63.2518 24.903 63.3314 25.5666 63.3314L25.625 63.3307C29.84 71.7477 38.3283 77.3703 47.9394 78.0462C48.5415 78.0993 49.2022 78.125 49.9601 78.125C50.2962 78.125 50.6241 78.0932 50.9473 78.0471C52.222 79.2909 53.9426 80 55.7588 80H57.6917C58.2254 80 58.6581 79.5802 58.6581 79.0625V77.2667C59.5014 77.6151 60.3991 77.8106 61.3102 77.8106C61.8967 77.8106 62.4866 77.7364 63.0652 77.5858L64.9325 77.1006C65.1802 77.0365 65.3911 76.8791 65.5195 76.6639C65.6473 76.4483 65.6823 76.1924 65.6157 75.9525L65.1369 74.2197C65.4541 74.2633 65.7723 74.3005 66.0906 74.3005C67.268 74.3005 68.4359 74.0034 69.4788 73.4197L71.1526 72.4822C71.6151 72.2231 71.7732 71.6495 71.5066 71.2014L70.5874 69.657C72.0811 69.4798 73.4809 68.8334 74.5616 67.785L75.9288 66.4588C76.11 66.2831 76.2119 66.0446 76.2119 65.796C76.2119 65.5475 76.11 65.309 75.9288 65.1332L74.6308 63.8746C76.0262 63.3283 77.2045 62.3503 77.9688 61.0661L78.9353 59.4424C79.2019 58.9943 79.0438 58.4207 78.5814 58.1616L76.9922 57.2715C78.194 56.3937 79.0709 55.1532 79.4668 53.7208L79.967 51.91C80.0335 51.6697 79.9984 51.4136 79.8705 51.1984ZM61.9263 70.1385C61.8861 69.8227 61.8316 69.5064 61.7463 69.1903L61.3452 67.7463C61.7509 67.1321 62.2996 66.61 62.9656 66.2355L63.8113 65.7654L64.295 66.5816C65.2903 68.2664 65.116 70.3151 63.9101 71.8092C63.3716 71.1385 62.7019 70.5702 61.9263 70.1385ZM49.96 76.25C49.6166 76.25 49.2971 76.2441 48.9935 76.2325V75.3125C48.9935 72.728 51.1615 70.625 53.8258 70.625H54.7922V71.5625C54.7922 74.147 52.6243 76.25 49.96 76.25ZM32.4515 46.3245L34.4495 57.3214C34.0319 57.8881 33.3227 58.1984 32.5685 58.0428L31.4645 57.8298L30.8731 46.8955C31.304 46.7632 31.8504 46.5721 32.4515 46.3245ZM31.2369 61.0504L31.3143 60.9753C31.5087 60.7867 31.6111 60.5272 31.596 60.2612L31.5689 59.7618L32.1811 59.8798C32.4327 59.9311 32.6813 59.9562 32.9408 59.9562C34.3603 59.9562 35.6896 59.1566 36.3277 57.9192C36.4201 57.7393 36.4508 57.5351 36.4149 57.3373L34.255 45.4486C36.73 44.0574 39.329 41.6843 39.329 37.8124C39.329 36.6347 38.9525 35.5416 38.3124 34.6371C39.2649 34.0289 40.2668 33.4974 41.3032 33.0463C41.6053 33.0936 41.9128 33.1249 42.2283 33.1249H44.1053C44.8444 33.699 45.7958 33.9673 46.7378 33.8514C47.2677 35.0809 48.5169 35.9374 49.96 35.9374C51.4031 35.9374 52.6521 35.0809 53.1821 33.8514C54.1237 33.968 55.0753 33.6991 55.8145 33.1249H57.6917C58.0037 33.1249 58.3077 33.0942 58.6064 33.0478C60.585 33.9114 62.3894 35.0502 64.0023 36.4301L62.4772 37.2804C62.0147 37.5386 61.8552 38.1117 62.1208 38.5602L63.0892 40.195C63.6502 41.1341 64.4397 41.901 65.3707 42.4595L65.7654 43.8868C66.0548 44.9329 66.6092 45.8737 67.3562 46.6513V48.1248C67.3562 49.2037 67.6431 50.2497 68.1611 51.1888L67.7668 52.6141C67.4787 53.647 67.4755 54.7286 67.7235 55.772L66.9551 57.0668C66.4033 57.99 66.1112 59.0361 66.0701 60.1123L64.9906 61.1587C64.2038 61.9223 63.645 62.8571 63.3282 63.8727L62.0006 64.6108C61.0325 65.1549 60.2419 65.9207 59.6661 66.8239L58.1947 67.2068C57.1164 67.4875 56.1466 68.0252 55.3448 68.7499H53.8259C51.1836 68.7499 48.8964 70.2304 47.7833 72.3779C40.6269 71.6656 34.3146 67.466 31.029 61.2351C31.0979 61.173 31.1697 61.1157 31.2369 61.0504ZM71.241 45.3924C70.9091 45.345 70.5788 45.3125 70.2556 45.3125H68.7055C68.2051 44.7704 67.8315 44.1213 67.6322 43.4008L67.3816 42.4954L68.3057 42.2542C68.6818 42.1589 69.0621 42.1027 69.4307 42.0871C71.0008 42.0662 72.4917 42.7721 73.4227 43.9626C72.6135 44.2941 71.8726 44.7756 71.241 45.3924ZM68.7876 40.2672C68.462 40.3062 68.136 40.359 67.8102 40.4418L66.3215 40.8309C65.6883 40.4372 65.15 39.9049 64.7635 39.258L64.2784 38.4391L65.1207 37.9694C66.8561 37.0034 68.9687 37.1726 70.5098 38.3428C69.8183 38.8653 69.2325 39.5148 68.7876 40.2672ZM58.1169 74.635C57.7755 73.8507 57.2799 73.1324 56.6449 72.5201C56.6926 72.2066 56.7252 71.8886 56.7252 71.5624V70.0588C57.284 69.5733 57.9532 69.211 58.6959 69.0177L59.6293 68.7746L59.878 69.6709C59.9762 70.0358 60.0342 70.4047 60.0502 70.7622C60.0918 72.2789 59.349 73.7304 58.1169 74.635ZM65.9717 65.6482L65.1968 64.3406C65.4263 63.6485 65.8158 63.0106 66.3577 62.4846L67.0447 61.8186L67.7262 62.4846C67.9919 62.7428 68.2184 63.0211 68.4213 63.3406C69.2524 64.6309 69.3615 66.2461 68.7535 67.6276C68.0528 67.1138 67.2524 66.7324 66.3862 66.5104C66.2665 66.2183 66.1369 65.9279 65.9717 65.6482ZM69.7301 61.8882C69.5351 61.6327 69.3288 61.3878 69.0952 61.1611L68.0006 60.0916C68.0432 59.3536 68.2501 58.6389 68.6288 58.0048L69.1135 57.1859L69.9507 57.6524C70.2748 57.8365 70.5768 58.0562 70.8501 58.3052C71.9909 59.3448 72.5268 60.8736 72.3119 62.3719C71.4982 62.0523 70.6242 61.8853 69.7301 61.8882ZM71.7347 56.5813C71.477 56.3825 71.2092 56.1944 70.921 56.0306L69.5872 55.2868C69.4266 54.5631 69.4339 53.8164 69.6332 53.1022L69.8828 52.199L70.8242 52.4448C71.1631 52.5304 71.5033 52.6614 71.8563 52.8413C73.2353 53.5605 74.1657 54.9087 74.3614 56.4029C73.4897 56.297 72.5996 56.3541 71.7347 56.5813ZM72.2472 50.9548C71.935 50.8236 71.6258 50.7098 71.3188 50.6326L69.8262 50.2424C69.4804 49.5912 69.2891 48.87 69.2891 48.125V47.1875H70.2556C70.6223 47.1875 70.9884 47.2291 71.3669 47.3125C72.8964 47.6632 74.1569 48.7386 74.7354 50.1222C73.8657 50.2392 73.0217 50.5181 72.2472 50.9548ZM77.0208 46.25C77.0208 47.1727 76.7368 48.059 76.2266 48.8172C75.5896 47.6576 74.6048 46.7022 73.4071 46.0833C74.1888 45.5881 75.1027 45.3126 76.0542 45.3126H77.0207L77.0208 46.25ZM74.3479 38.7422L74.598 39.6477C74.8443 40.5386 74.8066 41.4657 74.5163 42.3257C73.5922 41.3687 72.3854 40.6954 71.0616 40.395C71.6845 39.7197 72.4944 39.2236 73.414 38.9848L74.3479 38.7422ZM70.0126 33.0669L70.4958 33.8785C70.9725 34.6789 71.1832 35.586 71.1311 36.4917C69.9717 35.7801 68.6363 35.4257 67.2854 35.477C67.707 34.6734 68.3551 33.9951 69.176 33.5357L70.0126 33.0669ZM66.3666 33.4372C65.9469 33.9328 65.5972 34.4827 65.3409 35.0792C64.0122 33.9345 62.5709 32.9318 61.0088 32.1071C61.5642 31.7297 62.0476 31.261 62.4373 30.7227C63.831 31.5016 65.1459 32.4099 66.3666 33.4372ZM59.6246 26.5625H61.5575V27.5C61.5575 29.5677 59.8233 31.25 57.6917 31.25H57.0345C57.2647 30.27 57.0315 29.2356 56.4048 28.4375C56.48 28.3416 56.5432 28.2388 56.6069 28.1366C57.5578 27.8309 58.3827 27.3074 59.0344 26.6248C59.229 26.5961 59.4218 26.5625 59.6246 26.5625ZM58.6581 21.875V22.8125C58.6581 24.0404 58.0413 25.1429 57.068 25.8335C57.0022 25.4401 56.8723 25.0516 56.6558 24.6875C56.0706 23.7041 55.0435 23.12 53.9519 23.0203C54.6675 22.2996 55.6527 21.875 56.7252 21.875H58.6581ZM49.9601 22.8125C50.7869 22.8125 51.4711 23.4447 51.5178 24.2517C51.5362 24.5676 51.7174 24.8528 51.9996 25.0112C52.2818 25.1692 52.6267 25.1788 52.9184 25.036C53.6612 24.6716 54.5691 24.9302 54.9816 25.6251C55.3949 26.32 55.1731 27.2108 54.4762 27.6535C54.2035 27.8265 54.0393 28.1213 54.0393 28.4376C54.0393 28.7539 54.2035 29.0487 54.4762 29.2217C55.1732 29.6644 55.395 30.5552 54.9816 31.2501C54.9211 31.352 54.8472 31.4413 54.7675 31.5239L54.7657 31.5256C54.3018 32.0042 53.5514 32.1494 52.9185 31.8393C52.6268 31.6965 52.2819 31.7061 51.9997 31.8641C51.7175 32.0224 51.5362 32.3076 51.5179 32.6235C51.4712 33.4305 50.787 34.0628 49.9602 34.0628C49.1334 34.0628 48.4491 33.4306 48.4024 32.6235C48.3841 32.3077 48.2029 32.0225 47.9206 31.8641C47.7715 31.7807 47.6044 31.7386 47.4374 31.7386C47.2883 31.7386 47.1392 31.772 47.0018 31.8393C46.3675 32.1495 45.6183 32.0041 45.1543 31.5252L45.1534 31.5243C45.0734 31.4417 44.9995 31.3522 44.9388 31.2501C44.5254 30.5552 44.7472 29.6644 45.4441 29.2217C45.7168 29.0487 45.881 28.7539 45.881 28.4376C45.881 28.1213 45.7168 27.8264 45.4441 27.6535C44.7471 27.2108 44.5253 26.32 44.9388 25.6251C45.3522 24.9302 46.2577 24.6716 47.0019 25.036C47.2931 25.1788 47.6385 25.1692 47.9207 25.0112C48.2029 24.8529 48.3842 24.5677 48.4025 24.2517C48.4492 23.4448 49.1333 22.8125 49.9601 22.8125ZM41.262 21.875H43.1949C44.2676 21.875 45.2531 22.2997 45.9687 23.0206C44.877 23.1207 43.8497 23.7043 43.2643 24.6875C43.0478 25.0516 42.918 25.4402 42.8521 25.8335C41.8789 25.1429 41.262 24.0405 41.262 22.8125V21.875ZM38.3626 26.5625H40.2955C40.4983 26.5625 40.6911 26.5961 40.8857 26.6248C41.5374 27.3074 42.3622 27.8308 43.3132 28.1366C43.377 28.2388 43.4401 28.3416 43.5154 28.4375C42.8887 29.2356 42.6555 30.27 42.8857 31.25H42.2284C40.0968 31.25 38.3626 29.5677 38.3626 27.5V26.5625ZM38.9128 32.1082C38.2376 32.4653 37.5808 32.8548 36.9443 33.2757C36.3476 32.8519 35.6658 32.5377 34.9273 32.3594C35.7454 31.7661 36.6 31.2222 37.4883 30.7297C37.8774 31.2655 38.3592 31.7323 38.9128 32.1082ZM21.9329 37.8125C21.9329 35.7448 23.6671 34.0625 25.7987 34.0625C26.8837 34.0625 28.1096 34.4914 29.077 35.2101C29.4234 35.4673 29.9057 35.4673 30.252 35.2101C31.2195 34.4914 32.4454 34.0625 33.5303 34.0625C35.662 34.0625 37.3962 35.7448 37.3962 37.8125C37.3962 43.0049 30.9255 44.9532 29.6645 45.2828C28.4036 44.9532 21.9329 43.0049 21.9329 37.8125ZM26.4117 46.1262C27.4679 46.5973 28.3978 46.8885 28.9454 47.0378L29.6414 59.9344C29.4735 60.0805 29.296 60.2159 29.1011 60.3478C28.1286 61.0248 26.9464 61.4153 25.6761 61.4547C25.6581 61.4565 25.6402 61.4569 25.6218 61.4569C25.3825 61.4569 25.1456 61.4473 24.9115 61.4221L26.4117 46.1262ZM27.6359 63.0444C28.264 62.881 28.8693 62.6487 29.4414 62.3389C32.9948 68.8764 39.6267 73.3134 47.1657 74.1994C47.1014 74.5619 47.0608 74.9323 47.0608 75.3124V76.0697C38.7552 75.1477 31.4768 70.2648 27.6359 63.0444ZM56.7252 78.1249H55.7588C54.8112 78.1249 53.9006 77.8517 53.1209 77.3603C54.3179 76.7437 55.3014 75.7897 55.937 74.6286C56.4436 75.3848 56.7252 76.2681 56.7252 77.1874V78.1249ZM62.565 75.7748C61.6471 76.0138 60.6917 75.9777 59.8055 75.6962C60.7935 74.8009 61.4898 73.632 61.7981 72.3474C62.4924 72.9513 63.0025 73.7358 63.2483 74.6263L63.4984 75.5322L62.565 75.7748ZM68.5124 71.7955C67.6874 72.2579 66.752 72.4625 65.8181 72.4118C66.5517 71.287 66.917 69.9915 66.8643 68.6811C67.6929 69.0902 68.3922 69.7188 68.8658 70.5151L69.349 71.3267L68.5124 71.7955ZM73.195 66.4593C72.5233 67.1112 71.6778 67.5429 70.7647 67.7292C71.1644 66.471 71.1641 65.1195 70.7647 63.863C71.6779 64.0491 72.5228 64.4807 73.1951 65.1332L73.8784 65.796L73.195 66.4593ZM76.2945 60.1285C75.8191 60.9277 75.1163 61.5578 74.2839 61.9667C74.3332 60.6529 73.9736 59.3473 73.2548 58.2311C74.1859 58.1819 75.1181 58.3867 75.941 58.8481L76.7777 59.3169L76.2945 60.1285ZM77.5998 53.2355C77.354 54.1249 76.8449 54.9087 76.1518 55.5124C75.8444 54.2336 75.1478 53.064 74.1561 52.1662C75.0422 51.8848 75.9973 51.8487 76.916 52.0874L77.8499 52.3301L77.5998 53.2355Z" fill="#1B7261"/>
</svg>
