<svg width="20" height="23" viewBox="0 0 20 23" fill="none" xmlns="http://www.w3.org/2000/svg">
<path d="M14.152 0.00136377C12.7871 0.0930728 11.3262 0.90161 10.4218 1.99276C9.6303 2.9529 8.96661 4.36223 9.21855 5.82583C8.99294 5.75658 8.788 5.74909 8.5417 5.66113C7.87049 5.42343 7.1034 5.16702 6.15017 5.16702C4.25687 5.16702 2.31844 6.28812 1.09635 8.1616C-0.682257 10.8829 -0.325031 15.6724 2.37485 19.7656C2.85052 20.4843 3.40516 21.2685 4.08953 21.8918C4.77391 22.515 5.60117 22.9904 6.57132 22.9998C7.40046 23.0091 7.97766 22.734 8.49658 22.5057C9.0155 22.2773 9.49869 22.0752 10.4068 22.0714C10.4124 22.0714 10.4162 22.0714 10.4218 22.0714C11.3262 22.064 11.7943 22.2624 12.302 22.4907C12.8096 22.719 13.3812 23.0073 14.2122 22.9998C15.2012 22.9923 16.0416 22.4533 16.7391 21.787C17.4366 21.1207 18.0101 20.3028 18.4839 19.5859C19.1626 18.5566 19.4352 17.9951 19.9579 16.8459C20.0124 16.7261 20.0143 16.5876 19.9617 16.466C19.9109 16.3443 19.8113 16.2489 19.6872 16.2021C17.9762 15.5582 17.0004 14.0516 16.8594 12.4588C16.7184 10.8661 17.3953 9.22655 19.1006 8.29636C19.2265 8.22898 19.3149 8.11107 19.345 7.97257C19.3732 7.83407 19.3393 7.68809 19.251 7.57766C18.027 6.06352 16.3048 5.16702 14.6183 5.16702C13.5429 5.16702 12.7532 5.41969 12.1064 5.66113C11.9993 5.7023 11.9203 5.69856 11.8207 5.73599C12.4768 5.39161 13.0559 4.91435 13.4902 4.35848C14.2799 3.34968 14.8891 1.91415 14.6634 0.405633C14.6258 0.158579 14.4021 -0.0173524 14.152 0.00136377ZM13.6406 1.13931C13.6087 2.10693 13.2759 3.05397 12.7231 3.75957C12.144 4.50073 11.1701 5.01355 10.2263 5.16702C10.2432 4.23683 10.6117 3.27295 11.1739 2.59168C11.7643 1.88047 12.7419 1.36764 13.6406 1.13931ZM6.15017 6.12529C6.57132 6.12529 7.54899 6.32555 8.2108 6.5595C8.87261 6.79345 9.57014 7.06858 10.3918 7.06858C11.1946 7.06858 11.8301 6.79158 12.4524 6.5595C13.0747 6.32742 13.6952 6.12529 14.6183 6.12529C15.8235 6.12529 17.1264 6.74854 18.153 7.8322C16.5097 8.98699 15.7408 10.7875 15.8968 12.5337C16.0529 14.2986 17.1208 15.9737 18.8749 16.8459C18.8724 16.8513 18.8699 16.8568 18.8674 16.8622C18.4918 17.6766 18.2414 18.2197 17.6867 19.0619C17.2261 19.76 16.6789 20.5236 16.0773 21.0982C15.4757 21.6728 14.8383 22.0359 14.1972 22.0415C13.5786 22.0471 13.227 21.8637 12.693 21.6223C12.1591 21.3808 11.4691 21.1038 10.4068 21.1132C9.3464 21.1188 8.64699 21.3846 8.10551 21.6223C7.56403 21.86 7.20868 22.0471 6.58636 22.0415C5.92831 22.0359 5.31727 21.7177 4.7363 21.188C4.15534 20.6584 3.63078 19.9359 3.17203 19.2416C0.645121 15.4085 0.442066 10.9054 1.89353 8.68566C2.95769 7.05548 5.72902 6.12529 6.15017 6.12529Z" fill="#051145"/>
<path d="M6.15017 6.12529C6.57132 6.12529 7.54899 6.32555 8.2108 6.5595C8.87261 6.79345 9.57014 7.06858 10.3918 7.06858C11.1946 7.06858 11.8301 6.79158 12.4524 6.5595C13.0747 6.32742 13.6952 6.12529 14.6183 6.12529C15.8235 6.12529 17.1264 6.74854 18.153 7.8322C16.5097 8.98699 15.7408 10.7875 15.8968 12.5337C16.0529 14.2986 17.1208 15.9737 18.8749 16.8459L18.8674 16.8622C18.4918 17.6766 18.2414 18.2197 17.6867 19.0619C17.2261 19.76 16.6789 20.5236 16.0773 21.0982C15.4757 21.6728 14.8383 22.0359 14.1972 22.0415C13.5786 22.0471 13.227 21.8637 12.693 21.6223C12.1591 21.3808 11.4691 21.1038 10.4068 21.1132C9.3464 21.1188 8.64699 21.3846 8.10551 21.6223C7.56403 21.86 7.20868 22.0471 6.58636 22.0415C5.92831 22.0359 5.31727 21.7177 4.7363 21.188C4.15534 20.6584 3.63078 19.9359 3.17203 19.2416C0.645121 15.4085 0.442066 10.9054 1.89353 8.68566C2.95769 7.05548 5.72902 6.12529 6.15017 6.12529Z" fill="#051145"/>
<path d="M13.6406 1.13931C13.6087 2.10693 13.2759 3.05397 12.7231 3.75957C12.144 4.50073 11.1701 5.01355 10.2263 5.16702C10.2432 4.23683 10.6117 3.27295 11.1739 2.59168C11.7643 1.88047 12.7419 1.36764 13.6406 1.13931Z" fill="#051145"/>
</svg>
