<svg width="33" height="40" viewBox="0 0 33 40" fill="none" xmlns="http://www.w3.org/2000/svg">
<path fill-rule="evenodd" clip-rule="evenodd" d="M11.1474 27.5815C-2.67038 7.16831 14.6194 -2.8138 18.8453 10.6994C22.6128 5.16303 34.9138 13.8472 22.7252 25.5261C37.9292 20.3201 34.2751 -2.68718 19.7977 6.66929C16.3943 -5.8839 -7.93429 -0.587498 2.64742 21.4718C6.36392 29.2201 12.5502 34.5275 6.52615 40H33C26.449 36.1005 22.7552 29.2478 19.7512 22.6195C19.4182 25.426 17.0245 24.6426 17.0245 24.6426C19.1147 24.935 20.2566 22.8992 18.2554 20.8352C18.2554 20.8352 19.2866 18.4754 19.4403 17.4509C19.594 16.4269 18.6394 15.7587 18.6394 15.7587C18.6394 15.7587 18.5078 14.7123 18.6944 14.6122C18.881 14.512 18.9905 14.9017 19.21 14.9241C19.4295 14.9466 19.6706 14.824 19.8572 14.245C20.0439 13.6659 19.5719 13.4881 19.5719 13.4881C19.6485 11.7735 18.0636 11.5484 17.6354 11.618C16.5259 11.7982 16.8396 12.1879 16.5123 11.229C16.392 10.8767 16.1464 10.6056 15.6767 10.2764C14.8979 9.73075 13.8775 10.5216 13.7459 10.8664C13.6143 11.2117 13.6364 11.4897 13.4055 11.9461C13.1752 12.4026 12.3743 13.3263 12.3743 13.3263C10.4656 13.8386 10.1581 15.8646 10.2018 17.6011C10.2478 19.4268 11.587 21.8534 13.2938 22.5268C13.2938 22.5268 12.1837 22.5568 10.9965 21.1852C10.6681 23.3223 10.8547 25.4853 11.1474 27.5815ZM21.543 1.55362C21.9265 1.19677 22.222 1.06151 22.6361 1.2313C23.0939 1.41894 23.3077 1.96746 23.1131 2.45497C22.7609 3.33847 21.5799 3.88123 20.3984 4.42457C19.9213 3.20091 19.4443 1.97724 19.7965 1.09374C19.9911 0.606235 20.5203 0.362769 20.9781 0.550405C21.3927 0.720774 21.5118 1.02698 21.543 1.55362ZM5.61347 35.6228C5.83866 35.1428 6.06386 34.9033 6.51424 34.9033C7.0117 34.9033 7.415 35.3333 7.415 35.8628C7.415 36.8223 6.51424 37.7823 5.61347 38.7418C4.71271 37.7823 3.81195 36.8223 3.81195 35.8628C3.81195 35.3333 4.21525 34.9033 4.71271 34.9033C5.16309 34.9033 5.38828 35.1433 5.61347 35.6228ZM28.7804 27.5959C29.2035 26.694 29.6267 26.2433 30.473 26.2433C31.4072 26.2433 32.1656 27.0514 32.1656 28.0471C32.1656 29.851 30.473 31.6542 28.7798 33.4581C27.0872 31.6542 25.394 29.851 25.394 28.0471C25.394 27.0514 26.1524 26.2433 27.0866 26.2433C27.9329 26.2433 28.3561 26.694 28.7792 27.5959H28.7804ZM15.9286 13.8138C16.0931 13.6441 16.2604 13.3822 16.3041 13.1151C16.4493 12.231 15.9717 12.7001 15.8736 12.9983C15.8407 13.0984 15.8843 13.5992 15.7749 13.5658C15.4124 13.4553 15.2967 13.2855 15.1878 13.716C15.0845 14.1235 14.6512 13.9192 14.3211 13.8104C14.3211 13.8104 13.9807 14.6455 14.0579 14.8902C14.1344 15.1354 14.3761 15.5584 14.5077 16.237C14.6353 16.896 14.7601 18.4455 14.9138 18.9088C14.9138 18.9088 14.8917 17.9182 15.1554 17.673C15.4186 17.4279 17.1963 16.2479 17.24 16.1144C17.2837 15.9809 17.2071 15.2016 17.0648 15.068C16.6541 14.6835 16.2803 15.3454 16.1714 14.2893C16.1237 13.8259 15.7425 14.0049 15.9292 13.8127L15.9286 13.8138Z" fill="white"/>
</svg>
