<svg width="36" height="36" viewBox="0 0 36 36" fill="none" xmlns="http://www.w3.org/2000/svg">
<circle cx="18" cy="18" r="18" fill="white"/>
<path d="M22 10H14C11.7909 10 10 11.7909 10 14V22C10 24.2091 11.7909 26 14 26H22C24.2091 26 26 24.2091 26 22V14C26 11.7909 24.2091 10 22 10Z" stroke="#051145" stroke-width="1.5" stroke-linecap="round" stroke-linejoin="round"/>
<path d="M21.1999 17.496C21.2986 18.1618 21.1849 18.8418 20.8749 19.4392C20.5649 20.0367 20.0744 20.5211 19.4732 20.8237C18.8719 21.1263 18.1906 21.2317 17.5261 21.1247C16.8616 21.0178 16.2477 20.7041 15.7717 20.2281C15.2958 19.7522 14.982 19.1383 14.8751 18.4738C14.7682 17.8092 14.8735 17.1279 15.1761 16.5267C15.4787 15.9255 15.9632 15.435 16.5607 15.125C17.1581 14.815 17.8381 14.7013 18.5039 14.8C19.183 14.9007 19.8117 15.2172 20.2972 15.7026C20.7827 16.1881 21.0992 16.8169 21.1999 17.496Z" stroke="#051145" stroke-width="1.5" stroke-linecap="round" stroke-linejoin="round"/>
<path d="M22.3999 13.6H22.4079" stroke="#051145" stroke-width="1.5" stroke-linecap="round" stroke-linejoin="round"/>
</svg>
