<svg width="36" height="36" viewBox="0 0 36 36" fill="none" xmlns="http://www.w3.org/2000/svg">
<circle cx="18" cy="18" r="18" fill="white"/>
<path d="M21.1999 15.0526C22.4729 15.0526 23.6938 15.585 24.594 16.5325C25.4942 17.4801 25.9999 18.7652 25.9999 20.1053V26H22.7999V20.1053C22.7999 19.6586 22.6313 19.2302 22.3313 18.9143C22.0312 18.5985 21.6242 18.4211 21.1999 18.4211C20.7756 18.4211 20.3686 18.5985 20.0685 18.9143C19.7685 19.2302 19.5999 19.6586 19.5999 20.1053V26H16.3999V20.1053C16.3999 18.7652 16.9056 17.4801 17.8058 16.5325C18.706 15.585 19.9269 15.0526 21.1999 15.0526Z" stroke="#051145" stroke-width="1.5" stroke-linecap="round" stroke-linejoin="round"/>
<path d="M13.2 15.8947H10V26H13.2V15.8947Z" stroke="#051145" stroke-width="1.5" stroke-linecap="round" stroke-linejoin="round"/>
<path d="M11.6 13.3684C12.4837 13.3684 13.2 12.6144 13.2 11.6842C13.2 10.754 12.4837 10 11.6 10C10.7163 10 10 10.754 10 11.6842C10 12.6144 10.7163 13.3684 11.6 13.3684Z" stroke="#051145" stroke-width="1.5" stroke-linecap="round" stroke-linejoin="round"/>
</svg>
