<svg width="50" height="50" viewBox="0 0 50 50" fill="none" xmlns="http://www.w3.org/2000/svg">
<circle cx="25" cy="25" r="25" fill="#1B7262"/>
<path d="M36.3152 31.0662C38.9243 27.3639 38.5255 22.2917 34.9618 18.9876C33.3335 17.478 31.2577 16.5382 29.0154 16.2758C29.0015 16.2584 28.9872 16.2412 28.9715 16.2247C27.0208 14.1754 24.2183 13 21.2826 13C15.6959 13 11 17.2098 11 22.6C11 24.4899 11.5804 26.3015 12.6831 27.8662L11.1428 32.7572C11.0459 33.0646 11.1412 33.4006 11.3842 33.6095C11.6277 33.8188 11.9712 33.859 12.2549 33.7131L16.9392 31.3042C17.9011 31.7231 18.9212 31.998 19.9776 32.123C22.0154 34.2903 24.833 35.4 27.7157 35.4C29.2142 35.4 30.7073 35.0911 32.0589 34.5041L36.7434 36.9131C36.8568 36.9715 36.9796 37 37.1017 37C37.6355 37 38.0182 36.4739 37.8556 35.9572L36.3152 31.0662ZM17.2584 29.6945C17.0369 29.5881 16.7792 29.5916 16.5606 29.704L13.2242 31.4197L14.3137 27.9602C14.393 27.7083 14.3443 27.4331 14.1833 27.2249C13.1357 25.8686 12.5819 24.2694 12.5819 22.6C12.5819 18.1888 16.485 14.6 21.2826 14.6C23.2145 14.6 25.0744 15.1919 26.5831 16.2579C21.5023 16.7746 17.4332 20.7882 17.4332 25.8C17.4332 27.3588 17.8283 28.8595 18.5731 30.2041C18.1221 30.0682 17.6829 29.8983 17.2584 29.6945ZM32.4377 32.9039C32.2223 32.7932 31.9644 32.7865 31.7399 32.8945C30.5067 33.4869 29.1152 33.8 27.7157 33.8C22.9182 33.8 19.0151 30.2112 19.0151 25.8C19.0151 21.3888 22.9182 17.8 27.7157 17.8C32.5133 17.8 36.4164 21.3888 36.4164 25.8C36.4164 27.4694 35.8626 29.0686 34.8149 30.4248C34.6541 30.6331 34.6053 30.9083 34.6845 31.1602L35.774 34.6197L32.4377 32.9039Z" fill="white"/>
<path d="M24.499 26.6C24.9359 26.6 25.29 26.2418 25.29 25.8C25.29 25.3582 24.9359 25 24.499 25C24.0622 25 23.708 25.3582 23.708 25.8C23.708 26.2418 24.0622 26.6 24.499 26.6Z" fill="white"/>
<path d="M27.6621 26.6C28.099 26.6 28.4531 26.2418 28.4531 25.8C28.4531 25.3582 28.099 25 27.6621 25C27.2252 25 26.8711 25.3582 26.8711 25.8C26.8711 26.2418 27.2252 26.6 27.6621 26.6Z" fill="white"/>
<path d="M30.8271 26.6C31.264 26.6 31.6182 26.2418 31.6182 25.8C31.6182 25.3582 31.264 25 30.8271 25C30.3903 25 30.0361 25.3582 30.0361 25.8C30.0361 26.2418 30.3903 26.6 30.8271 26.6Z" fill="white"/>
</svg>
