<svg width="36" height="36" viewBox="0 0 36 36" fill="none" xmlns="http://www.w3.org/2000/svg">
<circle cx="18" cy="18" r="18" fill="white"/>
<path d="M27 10.009C26.2165 10.6113 25.349 11.0719 24.4309 11.3732C23.9382 10.7558 23.2833 10.3181 22.5548 10.1195C21.8264 9.92083 21.0596 9.9708 20.3581 10.2626C19.6565 10.5544 19.0542 11.074 18.6324 11.7511C18.2107 12.4281 17.9899 13.23 18 14.0483V14.9399C16.5622 14.9806 15.1374 14.633 13.8526 13.9283C12.5679 13.2235 11.463 12.1834 10.6364 10.9006C10.6364 10.9006 7.36364 18.9258 14.7273 22.4925C13.0422 23.739 11.0349 24.364 9 24.2758C16.3636 28.7342 25.3636 24.2758 25.3636 14.0215C25.3629 13.7731 25.341 13.5254 25.2982 13.2814C26.1332 12.3839 26.7225 11.2508 27 10.009Z" stroke="#051145" stroke-width="1.5" stroke-linecap="round" stroke-linejoin="round"/>
</svg>
