<svg width="33" height="40" viewBox="0 0 33 40" fill="none" xmlns="http://www.w3.org/2000/svg">
<path d="M18.3525 16.168L18.1709 16.041L18.1436 15.8213V15.8193C18.1435 15.8186 18.1427 15.8175 18.1426 15.8164C18.1423 15.814 18.1421 15.8107 18.1416 15.8066C18.1406 15.7979 18.1394 15.7851 18.1377 15.7695C18.1342 15.7383 18.129 15.6938 18.124 15.6406C18.1141 15.5351 18.1029 15.3905 18.0977 15.2402C18.0926 15.0946 18.0926 14.9237 18.1113 14.7725C18.1205 14.6983 18.1363 14.6057 18.1699 14.5156C18.1974 14.442 18.2718 14.2718 18.458 14.1719L18.5322 14.1377C18.6098 14.1078 18.6958 14.0919 18.7871 14.0967C18.9048 14.1028 19.0007 14.1419 19.0703 14.1816C19.1588 14.2322 19.2288 14.3013 19.2734 14.3486C19.3033 14.2951 19.3415 14.2139 19.3809 14.0918C19.4058 14.0143 19.4005 13.9785 19.3994 13.9727C19.3984 13.9672 19.3981 13.9659 19.3965 13.9639C19.393 13.9596 19.3866 13.9546 19.3799 13.9502L19.0566 13.8281L19.0723 13.4658C19.102 12.8008 18.8261 12.4854 18.5371 12.3135C18.202 12.1142 17.8187 12.0947 17.7158 12.1113C17.473 12.1508 17.3133 12.2007 17.2051 12.2393C17.177 12.2492 17.1515 12.2589 17.126 12.2686C17.1021 12.2776 17.0723 12.2885 17.0459 12.2979C17.009 12.311 16.9028 12.3504 16.7812 12.3506C16.75 12.3506 16.7194 12.3445 16.6895 12.3398C16.7357 12.4022 16.7666 12.4664 16.7852 12.5205C16.8543 12.7232 16.8353 12.9682 16.7979 13.1963C16.7593 13.4319 16.6598 13.6497 16.543 13.834C16.6119 13.9535 16.6536 14.0894 16.6689 14.2383C16.6777 14.3235 16.6882 14.3866 16.6973 14.4326C16.7315 14.4327 16.7713 14.4309 16.8125 14.4346C16.9991 14.4515 17.2096 14.5191 17.4062 14.7031H17.4072C17.4952 14.7857 17.5445 14.8818 17.5703 14.9385C17.5999 15.0035 17.6223 15.0714 17.6396 15.1328C17.6745 15.2563 17.7002 15.395 17.7178 15.5225C17.7356 15.6515 17.7471 15.7836 17.751 15.8965C17.7529 15.9523 17.7528 16.0093 17.75 16.0625C17.7479 16.1033 17.742 16.1863 17.7148 16.2695C17.6876 16.3527 17.6454 16.4111 17.6299 16.4316C17.609 16.4593 17.5879 16.4819 17.5723 16.498C17.5407 16.5307 17.5054 16.5627 17.4736 16.5898C17.4085 16.6454 17.3243 16.7108 17.2334 16.7793C17.05 16.9174 16.8102 17.089 16.5693 17.2598C16.3256 17.4326 16.0803 17.6052 15.8779 17.751C15.6913 17.8854 15.5689 17.9779 15.5156 18.0225C15.5103 18.0344 15.5001 18.0596 15.4883 18.1025C15.4639 18.1913 15.4459 18.3067 15.4336 18.4316C15.4215 18.5542 15.4159 18.6724 15.4141 18.7607C15.4131 18.8045 15.413 18.8402 15.4131 18.8643C15.4131 18.876 15.414 18.8849 15.4141 18.8906V18.8975L14.4395 19.0664C14.3433 18.7765 14.2684 18.2124 14.2051 17.709C14.1367 17.1656 14.0763 16.6401 14.0166 16.332C13.9582 16.031 13.876 15.7854 13.7969 15.583C13.7565 15.4796 13.7178 15.3904 13.6807 15.3018C13.6465 15.2201 13.6083 15.1269 13.5811 15.04V15.041C13.5463 14.9309 13.5449 14.8245 13.5479 14.7529C13.5511 14.6749 13.562 14.5968 13.5752 14.5264C13.6015 14.3855 13.6432 14.2367 13.6836 14.1084C13.7247 13.9778 13.7681 13.8569 13.8008 13.7695C13.8172 13.7257 13.8308 13.6895 13.8408 13.6641C13.8458 13.6513 13.8506 13.6409 13.8535 13.6338C13.8549 13.6303 13.8556 13.627 13.8564 13.625L13.8574 13.623L13.8584 13.6221L14.0342 13.1895L14.4775 13.3359C14.5238 13.3512 14.5722 13.3675 14.6133 13.3818C14.6566 13.3969 14.6954 13.4102 14.7324 13.4219C14.7397 13.4242 14.7472 13.4247 14.7539 13.4268C14.7823 13.3494 14.8198 13.269 14.873 13.1973C14.9259 13.1261 15.0011 13.0531 15.1045 13.002C15.1992 12.9552 15.2931 12.9393 15.375 12.9385C15.3798 12.9099 15.3872 12.876 15.3984 12.8418C15.4448 12.7009 15.5252 12.5655 15.6084 12.459C15.6806 12.3665 15.8139 12.2194 15.999 12.1475C16.0733 12.1186 16.1859 12.0918 16.3135 12.1113C16.2494 12.0241 16.2144 11.9321 16.1982 11.8867C16.1767 11.8261 16.1534 11.7489 16.1309 11.6758C16.1065 11.597 16.0776 11.5036 16.0391 11.3906C15.9688 11.1849 15.8237 10.9898 15.3896 10.6855C15.2045 10.556 14.9632 10.5583 14.6807 10.6904C14.5441 10.7543 14.421 10.84 14.3291 10.9229C14.2244 11.0174 14.2042 11.0677 14.2129 11.0449C14.163 11.176 14.1465 11.2783 14.0996 11.4785C14.0545 11.6711 13.991 11.8962 13.8516 12.1719L13.8506 12.1709C13.7088 12.4519 13.4197 12.8359 13.1953 13.1182C13.0773 13.2665 12.9664 13.4 12.8857 13.4961C12.8454 13.5442 12.8123 13.5832 12.7891 13.6104C12.7775 13.6239 12.769 13.6353 12.7627 13.6426C12.7596 13.6462 12.7566 13.6484 12.7549 13.6504C12.754 13.6514 12.7534 13.6528 12.7529 13.6533H12.752L12.6514 13.7695L12.5039 13.8096C11.7329 14.0165 11.2859 14.5159 11.0215 15.1875C10.7481 15.882 10.6799 16.7436 10.7012 17.5889C10.7216 18.3976 11.0337 19.3771 11.5527 20.2383C12.0744 21.1038 12.7629 21.7795 13.4775 22.0615L13.3076 23.0264L13.2939 22.5264C13.3063 22.9842 13.3068 23.0231 13.3066 23.0264H13.3018C13.2995 23.0264 13.2967 23.0273 13.2939 23.0273C13.2885 23.0274 13.282 23.0265 13.2744 23.0264C13.2591 23.0262 13.2393 23.0257 13.2158 23.0244C13.1684 23.0217 13.104 23.0167 13.0264 23.0049C12.8712 22.9813 12.6603 22.9328 12.4111 22.8369C12.1076 22.7201 11.7533 22.5326 11.377 22.2383C11.2331 23.9863 11.3974 25.7569 11.6426 27.5127L10.7334 27.8613C3.77128 17.5759 4.50452 9.68919 7.86426 6.07715C9.54267 4.27296 11.8656 3.57818 14.0703 4.29004C16.0845 4.94041 17.8992 6.73246 19.0273 9.70703C20.0677 8.69062 21.4539 8.34238 22.8271 8.54297C24.4678 8.78267 26.0967 9.79895 27.1807 11.374C28.2712 12.9588 28.81 15.1064 28.2803 17.6074C27.8588 19.5976 26.7631 21.791 24.7656 24.1045C30.4678 21.0987 32.6021 15.1918 31.8984 10.7148C31.5046 8.20948 30.2384 6.22961 28.3027 5.39551C26.3726 4.56392 23.6107 4.80024 20.0693 7.08887L19.4941 7.46094L19.3154 6.7998C17.7181 0.908537 11.182 -0.874816 6.19629 1.54102C3.72984 2.73616 1.6773 4.95744 0.869141 8.20801C0.0592346 11.4658 0.487247 15.812 3.09863 21.2559C4.01559 23.1675 5.08587 24.9318 6.09668 26.6084C7.10093 28.2741 8.05469 29.8659 8.7002 31.3945C9.34717 32.9267 9.70674 34.4442 9.47852 35.96C9.295 37.1783 8.7376 38.351 7.72266 39.5H31.3145C25.8793 35.6802 22.5342 29.7968 19.8467 24.0264C19.763 24.1797 19.6705 24.3191 19.5664 24.4424C19.2153 24.8581 18.7854 25.072 18.3809 25.1699C17.9826 25.2663 17.6073 25.2513 17.3398 25.2168C17.2044 25.1993 17.0915 25.1767 17.0107 25.1572C16.9706 25.1475 16.938 25.1387 16.9141 25.1318L16.875 25.1201C16.8737 25.1197 16.8721 25.1185 16.8711 25.1182H16.8691L17.0938 24.1475C17.9691 24.2699 18.5205 23.9035 18.7109 23.4346C18.9061 22.9539 18.8166 22.1327 17.8965 21.1836L17.6631 20.9424L17.7969 20.6348L17.7979 20.6338C17.7983 20.6328 17.7989 20.631 17.7998 20.6289C17.8016 20.6247 17.8049 20.6178 17.8086 20.6094C17.8159 20.5924 17.827 20.5674 17.8408 20.5352C17.8688 20.4699 17.9091 20.3749 17.958 20.2578C18.0558 20.0236 18.1869 19.701 18.3232 19.3477C18.6035 18.6213 18.8789 17.8259 18.9463 17.377C18.9963 17.0438 18.87 16.7531 18.6963 16.5195C18.6107 16.4044 18.5202 16.3124 18.4512 16.25C18.417 16.2192 18.3889 16.1966 18.3711 16.1826C18.3622 16.1757 18.3558 16.1704 18.3525 16.168ZM18.3525 16.168L18.3506 16.167L18.3516 16.168H18.3525ZM6.51465 35.4033C6.70646 35.4036 6.91504 35.5798 6.91504 35.8633C6.91489 36.1895 6.75942 36.5656 6.44336 37.0146C6.21533 37.3386 5.9281 37.666 5.61328 38.0078C5.29863 37.6662 5.01214 37.3385 4.78418 37.0146C4.46812 36.5656 4.31168 36.1895 4.31152 35.8633C4.31152 35.5796 4.52096 35.4033 4.71289 35.4033C4.83667 35.4033 4.88531 35.4319 4.92285 35.4639C4.98065 35.5131 5.05718 35.6137 5.16113 35.835L5.61328 36.7998L6.06641 35.835C6.17032 35.6135 6.24607 35.513 6.30371 35.4639C6.34116 35.432 6.39022 35.4033 6.51465 35.4033ZM30.4727 26.7432C31.1012 26.7432 31.6659 27.297 31.666 28.0469C31.666 28.7954 31.3123 29.5938 30.6992 30.4648C30.1764 31.2075 29.4982 31.9546 28.7793 32.7246C28.0608 31.9548 27.3841 31.2073 26.8613 30.4648C26.248 29.5937 25.8936 28.7954 25.8936 28.0469C25.8937 27.297 26.4584 26.7432 27.0869 26.7432C27.4089 26.7432 27.6064 26.8245 27.7676 26.9619C27.949 27.1166 28.1233 27.3761 28.3262 27.8086L28.4619 28.0957H29.0977L29.2334 27.8086C29.4363 27.3761 29.6106 27.1166 29.792 26.9619C29.9532 26.8245 30.1507 26.7432 30.4727 26.7432ZM20.7197 0.993164L20.7881 1.0127C20.9023 1.05963 20.9374 1.10537 20.9609 1.15039C20.9964 1.2185 21.0296 1.34035 21.0439 1.58301L21.1064 2.64258L21.8838 1.91992C22.0602 1.75574 22.1654 1.69269 22.2344 1.66992C22.2781 1.65553 22.332 1.64749 22.4463 1.69434C22.6251 1.76765 22.7517 2.0109 22.6484 2.26953C22.5295 2.56776 22.2507 2.85413 21.7959 3.14746C21.4696 3.35791 21.0863 3.54565 20.6738 3.74023C20.51 3.30794 20.3643 2.90001 20.2734 2.5166C20.1471 1.98321 20.1416 1.57845 20.2607 1.2793C20.3502 1.05522 20.5534 0.964378 20.7197 0.993164Z" fill="#1B7261" stroke="black"/>
</svg>
